<?xml version="1.0" encoding="utf-8"?>
<!-- Generator: Adobe Illustrator 24.2.0, SVG Export Plug-In . SVG Version: 6.00 Build 0)  -->
<svg version="1.1" id="Layer_1" xmlns="http://www.w3.org/2000/svg" xmlns:xlink="http://www.w3.org/1999/xlink" x="0px" y="0px"
	 viewBox="0 0 842.4 393.1" style="enable-background:new 0 0 842.4 393.1;" xml:space="preserve">
<style type="text/css">
	.st0{fill:#658A90;}
	.st1{fill:#6C63FF;}
	.st2{fill:#0B3639;}
	.st3{fill:#3F3D56;}
	.st4{fill:#2F2E41;}
	.st5{fill:#F2F2F2;}
	.st6{fill:#E6E6E6;}
</style>
<path class="st0" d="M825.5,370.7C589.6,269.5,378,274.9,242,297.2c-147.4,24.2-240.1,73-241,73.5L0,368.9
	c0.9-0.5,93.9-49.4,241.6-73.7c86.8-14.3,175-17.3,262.6-9.2c109.4,10.2,217.8,38,322.2,82.8L825.5,370.7z"/>
<path class="st0" d="M280.9,184.8L225,140.6c-4.9-3.9-5.8-11-1.9-16l0,0c3.9-5,11.1-6,16.1-2.1c0.2,0.1,0.3,0.3,0.5,0.4l56.6,47.7
	l35.6,27.6c4.8-2.7,11-1,13.7,3.8c2.7,4.8,1,11-3.8,13.7c-4.8,2.7-11,1-13.7-3.8c-0.3-0.5-0.5-1.1-0.7-1.6L280.9,184.8z"/>
<path class="st1" d="M232.4,154.7L232.4,154.7c-1.5,0.2-3-0.6-3.6-2c-0.4-0.8-1-1.5-1.8-2c-0.2-0.1-0.3-0.2-0.5-0.2
	c-2-0.8-3.6-2.5-4.1-4.6c-0.8-3.4-3.4-6.7-6.1-9.3c-2.9-2.8-6-5.5-8.1-8.9c-3.1-4.9-3.9-11.8,2-15.9c2.6-1.7,5.6-2.5,8.7-2.2
	c6.4,0.5,11.7,4.4,16.7,8.2l-1.3-2.5c5.4,4.2,11.6,7.3,18.3,9.1c-1.1,1-0.2,3.1,1.3,3.6s3.1,0,4.6-0.3c1.9-0.4,4.3-0.4,5,1.9
	c0.3,1.1,0.2,2.3-0.4,3.3c-5.3,9.5-12.6,17.8-21.3,24.4c-1.9,1.5-4.2,2.9-6.6,2.6S230.9,156.6,232.4,154.7z"/>
<polygon class="st0" points="188.1,216.5 182.9,191.3 237.7,174.1 230.3,231.9 "/>
<path class="st2" d="M242,191.7l-52.8,22.8c0,0-6.8-0.3-6.8-4.4s3.8-5-1.2-8.1s-7-1.1-6-6.2s2.1-6.8,2.1-8s-1-6.3-1-11.5
	c0-2.5,8-7,6-21.6c-2.4-17.7-1.6-44.9,15.5-50.2l0,0L210.1,83h23.5l7.3,21.5l8.7,11.4c0,0,17.1,21.6,12,32.9S242,191.7,242,191.7z"
	/>
<path class="st3" d="M340.5,228.2c-0.1-18.3-3.1-36.5-9-53.8c-1.7-5-3.6-9.9-5.7-14.7c-0.8-1.8-3.5-0.4-2.7,1.3
	c7.3,16.4,11.9,33.8,13.6,51.6c0.5,5.1,0.8,10.2,0.8,15.3C337.5,229.9,340.5,230.1,340.5,228.2z"/>
<path class="st0" d="M325.5,157.3l1.7,5c-14.4-1.4-16.1-19.6-25.6-30.5c-9.5-10.9-26.6-14.5-26-29c0.1-2.1,0.4-4.4,2.1-5.7
	c2.1-1.6,5.1-0.8,7.5,0.2c2.5,1.1,5,2.3,7.4,3.7c0.8,2,1.5,4,2.2,6c0.7,2,3,3,5,2.3c0.8-0.3,1.5-0.9,2-1.6l0-0.1
	C330.4,107.6,333.7,131.1,325.5,157.3z"/>
<path class="st0" d="M326.3,163c-7,2.8-13-3.2-20-6c-7-2.8-15.1-2.5-18.3-9.3c-0.6-1-0.7-2.1-0.4-3.2c0.6-1.3,2.2-1.6,3.5-1.7
	c1.9-0.2,3.8-0.1,5.7,0.1c0.5,0.8,0.9,1.7,1.4,2.5c0.8,1.4,1.5,2.8,2.3,4.2c1.4-1.6,2.6-3.4,3.4-5.3c13-5.4,18.6,4.2,20.5,16.7
	L326.3,163z"/>
<path class="st0" d="M324.3,162.9c6.6,3.8,13.3-1.2,20.7-2.9c7.4-1.7,15.3-0.2,19.5-6.5c0.7-0.9,1-2,0.9-3.1
	c-0.4-1.3-1.9-1.9-3.2-2.2c-1.9-0.4-3.7-0.7-5.6-0.8c-0.6,0.7-1.1,1.5-1.7,2.3c-1,1.3-1.9,2.6-2.9,3.8c-1.2-1.8-2-3.7-2.6-5.7
	c-12-7.3-19.1,1.4-22.7,13.5L324.3,162.9z"/>
<path class="st0" d="M324.4,163.1c7.1-2.7,7.5-11.1,10.9-17.9c3.3-6.8,9.6-12,7.3-19.2c-0.2-1.1-0.9-2.1-1.8-2.6
	c-1.3-0.5-2.7,0.3-3.8,1.1c-1.5,1.2-2.9,2.5-4.2,3.9c0.2,0.9,0.4,1.8,0.7,2.8c0.4,1.6,0.7,3.1,1.1,4.7c-2.1-0.2-4.1-0.8-6.1-1.6
	c-13.3,4.7-11,15.6-4,26.1L324.4,163.1z"/>
<path class="st4" d="M206.1,63.5c17.2,13.1,36.4,23.6,40.1,38c0,0-2.2-22.7,7.9-18.4c17,7.2,11.2-32.1,6.5-38.5
	c-7.9-10.7-34.7-16.8-34.7-16.8l-19,10.4L206.1,63.5z"/>
<circle class="st0" cx="236.2" cy="49.6" r="29.8"/>
<path class="st4" d="M225.4,38.2l-1.1,5l20,4.6c0-2.1,0.9-4,2.5-5.4c-0.4,2-0.4,4,0.1,6c10.8,6.1,10.2,8.2,18.9,6.7
	c2.5,0.6,4.9-1,5.5-3.4l0,0l0,0c3.5-15.4,4.7-31.2-10.7-35c-15.5-3.9-31.2,5.5-35.1,21C225.5,37.9,225.5,38,225.4,38.2L225.4,38.2z"
	/>
<path class="st2" d="M230.3,58.3c3.7-16,19.6-26.1,35.7-22.4c1.9,0.4,3.8,1.1,5.6,1.9c-1.4-4.1-4.2-7.6-7.9-9.8l-22.5-9.8
	c-11.1-2.5-28.7-9.7-36.8-2.8c-7.4,6.3-3.8,18.7-10.6,25.6c-7.5,7.6-8.1,16.6-6,21.7c2.5,6,7.4,14.1,13.5,15.9c0.3-2.1,1.4-4,3-5.4
	c-0.4,2-0.5,4.1-0.1,6.1l37,29.5c-3.5-3-6.4-10.8-8.4-19.5c-1.2-5.2-8.4-7-2.6-15.8S229.6,61.8,230.3,58.3z"/>
<path class="st4" d="M200.7,25.4l0.1,0.2c0.1,0.3,0.3,0.6,0.4,0.8l0,0c0.6,0.2,1.2-0.1,1.8-0.7c-0.1,1.2-0.2,2.5-0.2,3.6l19.7-7.7
	c-3.4,0.6-3.9-11.6-6.4-9.3c-0.1,0.1-0.3,0.3-0.4,0.4c0.3-0.7,0.5-1.5,0.6-2.3c0.1-1,0-2-0.2-3c0,0,0,0,0,0
	c-0.2-0.9-0.6-1.7-1.1-2.4c-0.7-1.1-1.6-2-2.7-2.8c-2.8-2.1-6.4-2.8-9.7-1.8c-3.8,1.4-6.9,4.2-8.8,7.7c-1.6,2.8-2.7,6-2.5,9.2
	c0.1,0.8,0.3,1.7,0.5,2.5c0.7,2.3,2.5,4.1,4.7,4.9c0.3,0.1,0.6,0.2,0.9,0.3c0.2-1.5,0.2-3,0-4.5C198.8,22,199.9,23.6,200.7,25.4z"/>
<path class="st0" d="M219.8,20.9c0,0.6-0.1,1.3-0.2,1.9c0,0.1,0,0.2,0,0.2c-0.8,3.6-5.2-3.9-8.6-1.4c-2.6,1.9-4.1,2.3-6.9,3.5
	c-0.1-0.3-1,0.3-1.2,0c0-0.1,0-1.1,0-1.2c2.8-1.1,3.3-1.6,5.8-3.5c3.2-2.3,2.7-0.2,3.5-3.5c0.9-3.8,5.9-2.2,3.3-4l0.3-0.4
	c1.8,1.3,3.2,3.1,3.8,5.3c0,0,0,0,0,0C219.7,18.9,219.8,19.9,219.8,20.9z"/>
<path class="st0" d="M662.5,369.6H641l-9.8-50.8c-0.6-2.9,1.3-5.7,4.2-6.2c0.3-0.1,0.7-0.1,1-0.1h30.7c2.9,0,5.3,2.4,5.3,5.3
	c0,0.3,0,0.7-0.1,1L662.5,369.6z"/>
<path class="st0" d="M532.5,370c-0.1,0.1-21.7,0.1-21.5,0.1c-7.7-12.8-10.7-23.7-11.7-31.6c-0.9-7.1,4.2-13.6,11.3-14.4
	c0.5-0.1,1-0.1,1.5-0.1l19.5-0.1c7.2,0,13,5.7,13.1,12.9c0,0,0,0,0,0C544.7,346.4,542.5,359.6,532.5,370z"/>
<path class="st0" d="M521.4,325.5c1.1-8.6,0.6-17.2-1.3-25.7c-0.3-1.4-2.5-0.8-2.2,0.6c1.8,8.2,2.2,16.7,1.2,25.1
	C518.9,327,521.2,327,521.4,325.5z"/>
<path class="st0" d="M524.4,326.1c0.5-7.1,2.3-14.1,5.3-20.6c0.6-1.3-1.3-2.5-1.9-1.1c-3.2,6.9-5,14.2-5.6,21.8
	C522,327.5,524.3,327.5,524.4,326.1z"/>
<path class="st0" d="M518.1,325.9c-0.7-8-2.9-15.8-6.7-22.8c-0.7-1.3-2.6-0.1-1.9,1.1c3.6,6.7,5.8,14.1,6.4,21.7
	C515.9,327.3,518.2,327.3,518.1,325.9z"/>
<path class="st0" d="M510.5,302.3c-1.3-0.5-1.4-2.4-1.7-3.6c-0.2-0.9-0.5-1.7-1-2.5c-0.5-0.8-1.1-1.5-1.7-2.1
	c-0.5-0.5-1-1.1-1.3-1.7c-0.1-0.2-0.1-0.5-0.1-0.8c0-0.1,0.1-0.2,0.1-0.3l0,0c0.1-0.1,0-0.1-0.3,0.1c0,0,0.5,0.3,0.6,0.4
	c3.2,2.5,4.7,6.5,3.9,10.5c-0.3,1.4,1.9,2,2.2,0.6c1-4.9-0.9-10-5-13c-0.5-0.4-1.2-0.7-1.8-0.6c-0.8,0.1-1.5,0.7-1.7,1.4
	c-0.4,1-0.3,2.2,0.2,3.2c0.9,1.9,2.9,2.9,3.5,5c0.7,2.3,0.9,4.8,3.5,5.8c0.6,0.2,1.2-0.2,1.4-0.8
	C511.5,303.1,511.1,302.4,510.5,302.3L510.5,302.3z"/>
<path class="st0" d="M519.6,299.3c-1.3-0.5-1.5-2.3-1.8-3.5c-0.7-1.7-1.7-3.3-2.9-4.7c-0.5-0.6-0.9-1.2-1.1-1.9c0-0.1,0-0.3,0-0.4
	c0-0.1,0.1-0.3,0.1-0.5l0,0c0.1-0.1,0-0.1-0.3,0.1c0.1,0,0.1,0.1,0.2,0.1c0.2,0.1,0.4,0.3,0.6,0.4c1.4,1.1,2.5,2.6,3.2,4.4
	c0.8,1.9,1,4,0.6,6c-0.3,1.4,1.9,2,2.2,0.6c1-4.8-0.8-9.8-4.7-12.8c-0.5-0.4-1-0.7-1.6-0.8c-0.8-0.1-1.6,0.2-2,1
	c-0.5,1-0.6,2.2-0.2,3.3c0.8,2,2.8,3.3,3.6,5.4c0.4,1.1,0.6,2.2,1.1,3.3c0.5,1.1,1.4,2,2.6,2.4C520.3,301.9,520.9,299.8,519.6,299.3
	L519.6,299.3z"/>
<path class="st0" d="M529.6,304.4c-0.9-1.6,0.3-3.5,0.9-5.1c0.5-1.7,0.5-3.4,0.8-5.1c0.1-0.7,0.5-1.3,1-1.8c0.1-0.1,0.6-0.2,0.2-0.3
	c-0.3,0-0.1,0-0.1,0.3c0.1,0.4,0.2,0.8,0.2,1.2c0.2,1.7-0.1,3.5-0.7,5.1c-0.7,1.8-1.8,3.3-3.3,4.5c-0.5,0.3-0.7,1-0.4,1.5
	c0.3,0.5,1,0.7,1.5,0.4c3.7-2.8,5.7-7.3,5.1-11.9c-0.1-1.1-0.4-2.6-1.6-3.1c-1.2-0.4-2.5,0.4-3.2,1.4c-1.3,1.7-1.1,4-1.5,6
	c-0.5,2.7-2.4,5.2-0.9,8C528.3,306.8,530.3,305.6,529.6,304.4L529.6,304.4z"/>
<path class="st0" d="M520.1,291.3c-0.9-1.7,0-3.6,0.5-5.3c0.3-1.7,0.7-3.4,1.1-5c0.2-0.6,0.6-1.2,1.2-1.6c0.1-0.1,0.2-0.1,0.3-0.2
	c0-0.1-0.3,0-0.3-0.1c0,0.2,0.1,0.3,0.1,0.5c0.1,0.4,0.2,0.8,0.2,1.2c0.1,1.7-0.1,3.4-0.7,4.9c-0.7,1.8-1.8,3.3-3.3,4.5
	c-0.5,0.3-0.7,1-0.4,1.5c0.3,0.5,1,0.7,1.5,0.4c3.7-2.8,5.6-7.2,5.1-11.8c-0.1-1.1-0.3-2.5-1.3-3.1c-1.2-0.7-2.5,0.2-3.3,1
	c-1.5,1.6-1.7,3.9-2.1,6c-0.6,2.8-2,5.5-0.5,8.2C518.8,293.8,520.7,292.6,520.1,291.3L520.1,291.3z"/>
<path class="st0" d="M526.8,312.8c0.8-1.3,2.4-1.4,3.8-1.7c0.9-0.1,1.7-0.4,2.6-0.7c0.9-0.3,1.8-0.8,2.7-1.1
	c0.8-0.3,1.6-0.4,2.4-0.2c0,0,0.6,0.3,0.6,0.3c0.1,0-0.1-0.3-0.1-0.3c0,0-0.1,0.1-0.1,0.1c-0.3,0.2-0.6,0.6-1,0.8
	c-1.4,1-3,1.7-4.7,1.9c-1.9,0.3-3.8,0.1-5.6-0.7c-0.5-0.3-1.2-0.1-1.5,0.4c-0.3,0.5-0.1,1.2,0.4,1.5c4.4,1.9,9.4,1.2,13.2-1.7
	c0.9-0.7,1.9-1.7,1.5-3c-0.4-1.2-1.8-1.7-3-1.8c-2.4-0.3-4.6,1.4-6.8,1.9c-2.4,0.5-4.9,0.6-6.3,2.9
	C524.1,312.9,526,314.1,526.8,312.8L526.8,312.8z"/>
<path class="st0" d="M520.9,299.2c-1.8-4.2-0.2-9.1,3.8-11.4c0.1-0.1,0.2-0.1,0.3-0.1c0.2,0,0.2-0.1,0.1-0.1c0.2-0.6-0.1-0.1-0.1,0
	c-0.2,0.5-0.4,1-0.6,1.4c-0.5,1.1-1,2.1-1.4,3.2c-1,2.2-2.1,4.3-3.2,6.4c-0.7,1.3,1.2,2.4,1.9,1.1c1.1-2,2.2-4.1,3.2-6.2
	c0.5-1,1-2,1.4-3.1c0.2-0.5,0.4-0.9,0.6-1.4c0.3-0.5,0.5-1,0.6-1.6c0-1.2-1-2.1-2.1-2.1c-0.1,0-0.2,0-0.2,0
	c-1.1,0.3-2.1,0.9-2.9,1.7c-1.7,1.4-2.9,3.2-3.5,5.3c-0.8,2.7-0.6,5.5,0.6,8.1c0.3,0.5,1,0.7,1.5,0.4
	C521,300.4,521.2,299.7,520.9,299.2L520.9,299.2z"/>
<path class="st0" d="M512.8,310.2c-1.6,0.7-3.6-0.7-5-1.3c-1.6-0.7-3.3-0.7-5-1.3c-0.6-0.2-1.2-0.5-1.5-1.1
	c-0.1-0.1-0.1-0.2-0.2-0.3c0.1,0-0.2,0.2-0.1,0.2c0.1,0,0.2-0.1,0.3-0.1c0.4-0.1,0.8-0.1,1.3-0.1c3.7-0.1,7.1,1.8,9.1,4.8
	c0.8,1.2,2.7,0.1,1.9-1.1c-2.5-3.9-6.9-6.1-11.6-5.9c-1.1,0.1-2.5,0.2-3.1,1.3c-0.6,1.2,0.3,2.6,1.1,3.3c1.6,1.5,3.9,1.4,5.9,2
	c1.3,0.4,2.5,1.1,3.9,1.6c1.3,0.5,2.8,0.4,4-0.1c0.5-0.3,0.7-1,0.4-1.5C514,310.1,513.4,309.9,512.8,310.2L512.8,310.2z"/>
<path class="st0" d="M789.3,369.5c-0.1,0.1-21.7,0.1-21.5,0.1C760,356.8,757,346,756,338.1c-0.9-7.1,4.2-13.6,11.3-14.4
	c0.5-0.1,1-0.1,1.5-0.1l19.5-0.1c7.2,0,13,5.7,13.1,12.9c0,0,0,0,0,0C801.4,346,799.3,359.2,789.3,369.5z"/>
<path class="st0" d="M778.1,325.1c1.1-8.6,0.6-17.2-1.3-25.7c-0.3-1.4-2.5-0.8-2.2,0.6c1.8,8.2,2.2,16.7,1.2,25.1
	C775.7,326.5,778,326.5,778.1,325.1z"/>
<path class="st0" d="M781.2,325.6c0.5-7.1,2.3-14.1,5.3-20.6c0.6-1.3-1.3-2.5-1.9-1.1c-3.2,6.9-5,14.2-5.6,21.8
	C778.8,327.1,781,327.1,781.2,325.6z"/>
<path class="st0" d="M774.9,325.4c-0.7-8-2.9-15.8-6.7-22.8c-0.7-1.3-2.6-0.1-1.9,1.1c3.6,6.7,5.8,14.1,6.4,21.7
	C772.7,326.8,775,326.9,774.9,325.4z"/>
<path class="st0" d="M767.3,301.8c-1.3-0.5-1.4-2.4-1.7-3.6c-0.2-0.9-0.5-1.7-1-2.5c-0.5-0.8-1.1-1.5-1.7-2.1
	c-0.5-0.5-1-1.1-1.3-1.7c-0.1-0.2-0.1-0.5-0.1-0.8c0-0.1,0.1-0.2,0.1-0.3l0,0c0.1-0.1,0-0.1-0.3,0.1c0,0,0.5,0.3,0.6,0.4
	c3.2,2.5,4.7,6.5,3.9,10.5c-0.3,1.4,1.9,2,2.2,0.6c1-4.9-0.9-10-5-13c-0.5-0.4-1.2-0.7-1.8-0.6c-0.8,0.1-1.5,0.7-1.7,1.4
	c-0.4,1-0.3,2.2,0.2,3.2c0.9,1.9,2.9,2.9,3.5,5c0.7,2.3,0.9,4.8,3.5,5.8c0.6,0.2,1.2-0.2,1.4-0.8C768.3,302.6,767.9,302,767.3,301.8
	L767.3,301.8z"/>
<path class="st0" d="M776.3,298.8c-1.3-0.5-1.5-2.3-1.8-3.5c-0.7-1.7-1.7-3.3-2.9-4.7c-0.5-0.6-0.9-1.2-1.1-1.9c0-0.1,0-0.3,0-0.4
	c0-0.1,0.1-0.3,0.1-0.5l0,0c0.1-0.1,0-0.1-0.3,0.1c0.1,0,0.1,0.1,0.2,0.1c0.2,0.1,0.4,0.3,0.6,0.4c1.4,1.1,2.5,2.6,3.2,4.4
	c0.8,1.9,1,4,0.6,6c-0.3,1.4,1.9,2,2.2,0.6c1-4.8-0.8-9.8-4.7-12.8c-0.5-0.4-1-0.7-1.6-0.8c-0.8-0.1-1.6,0.2-2,1
	c-0.5,1-0.6,2.2-0.2,3.3c0.8,2,2.8,3.3,3.6,5.4c0.4,1.1,0.6,2.2,1.1,3.3c0.5,1.1,1.4,2,2.6,2.4C777.1,301.5,777.7,299.3,776.3,298.8
	z"/>
<path class="st0" d="M786.4,303.9c-0.9-1.6,0.3-3.5,0.9-5.1c0.5-1.7,0.5-3.4,0.8-5.1c0.1-0.7,0.5-1.3,1-1.8c0.1-0.1,0.6-0.2,0.2-0.3
	c-0.3,0-0.1,0-0.1,0.3c0.1,0.4,0.2,0.8,0.2,1.2c0.2,1.7-0.1,3.5-0.7,5.1c-0.7,1.8-1.8,3.3-3.3,4.5c-0.5,0.3-0.7,1-0.4,1.5
	c0.3,0.5,1,0.7,1.5,0.4c3.7-2.8,5.7-7.3,5.1-11.9c-0.1-1.1-0.4-2.6-1.6-3.1c-1.2-0.4-2.5,0.4-3.2,1.4c-1.3,1.7-1.1,4-1.5,6
	c-0.5,2.7-2.4,5.2-0.9,8C785.1,306.3,787,305.2,786.4,303.9L786.4,303.9z"/>
<path class="st0" d="M776.8,290.9c-0.9-1.7,0-3.6,0.5-5.3c0.3-1.7,0.7-3.4,1.1-5c0.2-0.6,0.6-1.2,1.2-1.6c0.1-0.1,0.2-0.1,0.3-0.2
	c0-0.1-0.3,0-0.3-0.1c0,0.2,0.1,0.3,0.1,0.5c0.1,0.4,0.2,0.8,0.2,1.2c0.1,1.7-0.1,3.4-0.7,4.9c-0.7,1.8-1.8,3.3-3.3,4.5
	c-0.5,0.3-0.7,1-0.4,1.5c0.3,0.5,1,0.7,1.5,0.4c3.7-2.8,5.6-7.2,5.1-11.8c-0.1-1.1-0.3-2.5-1.3-3.1c-1.2-0.7-2.5,0.2-3.3,1
	c-1.5,1.6-1.7,3.9-2.1,6c-0.6,2.8-2,5.5-0.5,8.2C775.6,293.3,777.5,292.2,776.8,290.9L776.8,290.9z"/>
<path class="st0" d="M783.6,312.4c0.8-1.3,2.4-1.4,3.8-1.7c0.9-0.1,1.7-0.4,2.6-0.7c0.9-0.3,1.8-0.8,2.7-1.1
	c0.8-0.3,1.6-0.4,2.4-0.2c0,0,0.6,0.3,0.6,0.3c0.1,0-0.1-0.3-0.1-0.3c0,0-0.1,0.1-0.1,0.1c-0.3,0.2-0.6,0.6-1,0.8
	c-1.4,1-3,1.7-4.7,1.9c-1.9,0.3-3.8,0.1-5.6-0.7c-0.5-0.3-1.2-0.1-1.5,0.4c-0.3,0.5-0.1,1.2,0.4,1.5c4.4,1.9,9.4,1.2,13.2-1.7
	c0.9-0.7,1.9-1.7,1.5-3c-0.4-1.2-1.8-1.7-3-1.8c-2.4-0.3-4.6,1.4-6.8,1.9c-2.4,0.5-4.9,0.6-6.3,2.9
	C780.9,312.5,782.8,313.6,783.6,312.4L783.6,312.4z"/>
<path class="st0" d="M777.7,298.7c-1.8-4.2-0.2-9.1,3.8-11.4c0.1-0.1,0.2-0.1,0.3-0.1c0.2,0,0.2-0.1,0.1-0.1c0.2-0.6-0.1-0.1-0.1,0
	c-0.2,0.5-0.4,1-0.6,1.4c-0.5,1.1-1,2.1-1.4,3.2c-1,2.2-2.1,4.3-3.2,6.4c-0.7,1.3,1.2,2.4,1.9,1.1c1.1-2,2.2-4.1,3.2-6.2
	c0.5-1,1-2,1.4-3.1c0.2-0.5,0.4-0.9,0.6-1.4c0.3-0.5,0.5-1,0.6-1.6c0-1.2-1-2.1-2.1-2.1c-0.1,0-0.2,0-0.2,0
	c-1.1,0.3-2.1,0.9-2.9,1.7c-1.7,1.4-2.9,3.2-3.5,5.3c-0.8,2.7-0.6,5.5,0.6,8.1c0.3,0.5,1,0.7,1.5,0.4
	C777.8,299.9,778,299.2,777.7,298.7L777.7,298.7z"/>
<path class="st0" d="M769.6,309.7c-1.6,0.7-3.6-0.7-5-1.3c-1.6-0.7-3.3-0.7-5-1.3c-0.6-0.2-1.2-0.5-1.5-1.1
	c-0.1-0.1-0.1-0.2-0.2-0.3c0.1,0-0.2,0.2-0.1,0.2c0.1,0,0.2-0.1,0.3-0.1c0.4-0.1,0.8-0.1,1.3-0.1c3.7-0.1,7.1,1.8,9.1,4.8
	c0.8,1.2,2.7,0.1,1.9-1.1c-2.5-3.9-6.9-6.1-11.6-5.9c-1.1,0.1-2.5,0.2-3.1,1.3c-0.6,1.2,0.3,2.6,1.1,3.3c1.6,1.5,3.9,1.4,5.9,2
	c1.3,0.4,2.5,1.1,3.9,1.6c1.3,0.5,2.8,0.4,4-0.1c0.5-0.3,0.7-1,0.4-1.5C770.8,309.6,770.1,309.4,769.6,309.7L769.6,309.7z"/>
<path class="st0" d="M650.7,316c6-19.9,4.4-41.3-4.6-60.1c-0.6-1.3-2.6-0.2-1.9,1.1c6.7,14.1,9.1,29.8,7.2,45.3
	c-0.6,4.4-1.5,8.8-2.8,13c-0.1,0.6,0.2,1.2,0.8,1.4C649.9,316.9,650.5,316.6,650.7,316L650.7,316z"/>
<path class="st0" d="M654.2,290.9l16.1-21.3l-2.1-0.6c0.3,7.3-0.8,14.5-3.2,21.3c-2.1,5.9-5.7,13.6-12.9,13.8c-1.4,0-1.5,2.3,0,2.3
	c7.7-0.3,12-7.3,14.5-13.8c2.9-7.5,4.3-15.6,3.9-23.7c0-0.6-0.5-1.1-1.2-1.1c-0.4,0-0.7,0.2-0.9,0.5l-16.1,21.3
	C651.4,290.9,653.3,292,654.2,290.9L654.2,290.9z"/>
<path class="st0" d="M653.4,281.7l-9.6-14c-0.3-0.5-1-0.7-1.6-0.4c-0.2,0.1-0.4,0.4-0.5,0.6c-4.1,10.9,0.2,23.1,10.2,29
	c0.5,0.3,1.2,0.1,1.5-0.5c0.3-0.5,0.1-1.2-0.4-1.5c-9.2-5.3-13.1-16.6-9.2-26.5l-2.1,0.3l9.6,14C652.2,284,654.2,282.9,653.4,281.7z
	"/>
<path class="st0" d="M644.9,255.2c-2.2-0.1-4.5-0.2-6.4-1.6c-0.7-0.5-1.3-1.2-1.8-1.9c-0.2-0.4-0.4-0.7-0.6-1.1
	c-0.2-0.4-0.3-0.8-0.3-1.2c0,0.1,0.1-0.1,0,0l-0.2,0.1c-0.1,0.2-0.3,0.2-0.5,0.1c-0.2,0-0.1-0.3-0.1,0.3c-0.1,0.6-0.1,1.1,0,1.7
	c0.3,1.1,1.3,1.8,2.4,1.5c0.1,0,0.1,0,0.2-0.1c0.4-0.1,0.7-0.3,1.1-0.5l0.1-0.1c0.1-0.1,0.1-0.1,0,0c0.1-0.1,0.1,0.1,0,0l0.1,0
	l-0.1,0c-0.1,0-0.2-0.1-0.3-0.2c0-0.1,0-0.1,0,0c0,0,0,0.3,0,0.1c0,0.1,0,0.1,0,0.2c0,0.2,0,0.4,0,0.6c0,0.5,0.1,0.9,0.3,1.3
	c0.3,0.6,1,0.9,1.6,0.9c0.7,0,1.2-0.5,1.8-0.8c0.3-0.1,0.6-0.1,0.8,0.2c0.2,0.2,0.2,0.5,0.1,0.7c-0.3,0.5-0.1,1.2,0.4,1.5
	c0.5,0.3,1.2,0.1,1.5-0.4c0.8-1.4,0.3-3.2-1.1-4c-0.5-0.3-1-0.4-1.5-0.4c-0.3,0-0.7,0.1-1,0.2c-0.4,0.1-0.8,0.3-1.1,0.6
	c-0.4,0.5-0.1,0-0.1,0.1c0,0,0.4,0.2,0.4,0.2l0,0.1c0-0.1,0-0.1,0,0c0-0.1,0-0.2,0-0.3c0-0.5,0-1-0.1-1.5c-0.2-0.6-0.7-1.1-1.3-1.3
	c-0.6-0.1-1.2,0-1.7,0.3c-0.2,0.1-0.4,0.2-0.6,0.3c0.2-0.1-0.1,0-0.1,0c-0.1-0.1,0.1,0,0.1,0c0.1,0,0.2,0.2,0.2,0.2c0,0,0-0.2,0-0.2
	c0-0.4,0.1-0.8,0.1-1.2c0-0.8-0.3-1.5-0.9-1.9c-0.7-0.5-1.6-0.4-2.2,0.1c-1,0.9-0.6,2.5-0.1,3.6c1,2.5,3.1,4.5,5.8,5.3
	c1.6,0.4,3.3,0.7,5,0.7c0.6,0,1.1-0.5,1.1-1.1C646.1,255.7,645.6,255.2,644.9,255.2L644.9,255.2z"/>
<path class="st0" d="M645.9,256.3c0.2-2.1,0.4-4.3,1.8-6.1c0.6-0.7,1.3-1.4,2.1-1.8c0.4-0.2,0.8-0.4,1.2-0.5
	c0.2-0.1,0.5-0.1,0.7-0.2c0.4-0.1-0.1,0,0.1,0c0.1,0,0.1,0,0.2,0c0.1,0,0.2,0,0.1,0c0.2-0.1,0.1,0.1,0,0l-0.1,0
	c-0.2-0.2-0.2-0.4-0.1-0.6c0-0.1,0.2,0-0.1-0.1c-0.6-0.1-1.2-0.2-1.8-0.1c-1.1,0.2-1.8,1.2-1.6,2.3c0,0.1,0,0.1,0.1,0.2
	c0.1,0.4,0.3,0.8,0.5,1.2c-0.1-0.2,0,0,0,0.1c0,0.1,0,0.2,0,0c0-0.1,0-0.1,0.1-0.2c0-0.1,0.1-0.1,0.1-0.1c0.1,0,0.1-0.1,0,0
	c0,0,0.3,0,0,0c-0.1,0-0.2,0-0.3,0c-0.2,0-0.3,0-0.5,0c-0.5,0-0.9,0-1.4,0.3c-0.7,0.4-1,1.1-0.8,1.9c0.2,0.5,0.4,1,0.7,1.5
	c0.1,0.4-0.1,0.8-0.4,0.9c-0.2,0.1-0.4,0-0.6-0.1c-1.3-0.7-2.4,1.2-1.1,1.9c1.4,0.8,3.2,0.4,4-1c0.3-0.5,0.4-1.1,0.4-1.7
	c-0.1-0.7-0.4-1.3-0.7-1.9c0,0-0.1-0.2-0.1-0.2c0.3,0.1-0.1,0.5-0.2,0.5l-0.1,0c0.1,0,0.1,0,0,0c0.1,0,0.2,0,0.3,0
	c0.5,0.1,1,0.1,1.5-0.1c0.6-0.2,1.1-0.7,1.3-1.3c0.1-0.6,0-1.3-0.3-1.8c0-0.1-0.2-0.5-0.2-0.3c0,0-0.1-0.3-0.1-0.3
	c0.1,0-0.1,0.4,0,0.1c0.2-0.3-0.2,0.3-0.2,0.2c0,0,0.2,0,0.2,0c0.4,0,0.8,0.1,1.2,0.2c0.8,0.1,1.5-0.3,2-0.9
	c0.5-0.7,0.4-1.6-0.2-2.2c-0.9-0.9-2.4-0.6-3.5-0.2c-1.2,0.4-2.4,1.1-3.3,2c-1,1-1.8,2.2-2.3,3.6c-0.5,1.6-0.8,3.2-0.9,4.8
	c0,0.6,0.5,1.1,1.1,1.1C645.4,257.4,645.9,256.9,645.9,256.3L645.9,256.3z"/>
<path class="st0" d="M645.8,253.9c-1-1.8-2.1-3.5-3.4-5c-0.3-0.4-0.6-0.7-1-1.1c-0.3-0.3-0.6-0.6-0.8-0.9c0-0.1,0-0.1-0.1-0.1
	c0-0.1,0-0.1,0,0c0,0,0,0.1,0,0.1c0,0.1-0.1,0.1,0,0c-0.2,0.2-0.3,0.3-0.6,0.2c-0.1,0-0.2-0.1-0.3-0.2c-0.1,0,0,0,0,0
	c0,0.1-0.2,0.4-0.2,0.6l2.2,0.6c0-0.1,0.1-0.3,0-0.1c0-0.1,0.1-0.1,0.2-0.2c-0.1,0.1-0.1,0.1,0.1,0c-0.2,0.1,0.2,0,0.2-0.1
	c-0.2,0,0.3,0,0.1,0c0.4,0.1,0.7,0.4,0.9,0.8c0.2,0.6,0.3,1.3,0.3,1.9c0,0.7-0.1,1.5-0.2,2.2c-0.2,0.6,0.2,1.2,0.8,1.4
	c0.6,0.2,1.2-0.2,1.4-0.8c0.5-2.1,0.7-4.8-0.8-6.6c-0.6-0.8-1.6-1.3-2.6-1.2c-1.1,0.1-2.1,0.9-2.4,2c-0.2,0.6,0.2,1.2,0.8,1.4
	c0.6,0.2,1.2-0.2,1.4-0.8c0.4-0.7,0.4-1.6,0-2.4c-0.4-0.7-1.2-1-2-0.8c-0.8,0.3-1.3,1-1.3,1.8c0,0.7,0.3,1.4,0.8,1.9
	c0.9,1,1.8,1.9,2.5,2.9c0.8,1.1,1.6,2.3,2.2,3.5c0.3,0.5,1,0.7,1.5,0.4C645.9,255.2,646.1,254.5,645.8,253.9L645.8,253.9z"/>
<rect x="356.4" y="368.7" class="st0" width="486" height="2"/>
<path class="st5" d="M447.7,281.5c0-2-2.3-3.5-5.1-3.5c-2.8,0-5.1,1.6-5.1,3.5s2.3,3.5,5.1,3.5C445.4,285.1,447.7,283.5,447.7,281.5
	z"/>
<ellipse class="st0" cx="410.2" cy="289.5" rx="5.1" ry="3.5"/>
<ellipse class="st0" cx="455.4" cy="306.8" rx="5.1" ry="3.5"/>
<path class="st5" d="M468.8,318.5c-0.2,0-0.5,0-0.7-0.1c-1.1-0.5-1.8-1.6-1.9-2.8c-0.3-1.3,0.2-2.6,1.3-3.4c0.1-0.1,0.3-0.1,0.5-0.1
	c1.2-0.2,2.4,1.1,2.7,2.9C470.9,316.8,470.1,318.3,468.8,318.5z"/>
<path class="st0" d="M432.9,301.5c-1.2,0.2-2,1.7-1.8,3.5c0.2,1.8,1.4,3.1,2.7,2.9c1.2-0.2,2-1.7,1.8-3.5
	C435.3,302.6,434.2,301.3,432.9,301.5z"/>
<path class="st0" d="M450.3,294.1c-0.2-1.8-1.4-3.1-2.7-2.9c-1.2,0.2-2,1.7-1.8,3.5c0.2,1.8,1.4,3.1,2.7,2.9
	C449.7,297.4,450.5,295.9,450.3,294.1z"/>
<ellipse transform="matrix(0.9906 -0.1365 0.1365 0.9906 -34.6597 60.5049)" class="st5" cx="423.9" cy="283" rx="2.2" ry="3.2"/>
<path class="st0" d="M428.7,312.8c0-1.3-1.6-2.4-3.5-2.4c-1.9,0-3.5,1.1-3.5,2.5s1.6,2.4,3.5,2.4
	C427.1,315.3,428.7,314.1,428.7,312.8z"/>
<ellipse transform="matrix(1 -7.685482e-03 7.685482e-03 1 -2.4358 3.1066)" class="st0" cx="403" cy="318.5" rx="3.5" ry="2.4"/>
<ellipse transform="matrix(1 -7.685482e-03 7.685482e-03 1 -2.5242 3.3461)" class="st0" cx="434.1" cy="330.1" rx="3.5" ry="2.4"/>
<path class="st0" d="M443.4,338.1c-0.2,0-0.3,0-0.5,0c-0.8-0.4-1.3-1.1-1.3-1.9c-0.2-0.9,0.1-1.8,0.9-2.3c0.1-0.1,0.2-0.1,0.3-0.1
	c0.8-0.1,1.7,0.8,1.8,2C444.7,336.9,444.2,337.9,443.4,338.1z"/>
<path class="st0" d="M418.6,326.6c-0.8,0.1-1.4,1.2-1.2,2.4c0.2,1.2,1,2.1,1.8,2c0.8-0.1,1.4-1.2,1.2-2.4S419.5,326.4,418.6,326.6z"
	/>
<path class="st0" d="M430.5,321.4c-0.2-1.2-1-2.1-1.8-2c-0.8,0.1-1.4,1.2-1.2,2.4s1,2.1,1.8,2C430.2,323.7,430.7,322.6,430.5,321.4z
	"/>
<ellipse transform="matrix(0.9896 -0.1441 0.1441 0.9896 -40.938 62.6967)" class="st0" cx="412.3" cy="313.9" rx="1.5" ry="2.2"/>
<path class="st0" d="M379.9,307.9c0-2-2.3-3.5-5.1-3.5c-2.8,0-5.1,1.6-5.1,3.6s2.3,3.5,5.1,3.5C377.7,311.5,380,309.9,379.9,307.9z"
	/>
<ellipse transform="matrix(1 -7.685482e-03 7.685482e-03 1 -2.4201 2.6419)" class="st0" cx="342.5" cy="316.2" rx="5.1" ry="3.5"/>
<ellipse transform="matrix(1 -7.685482e-03 7.685482e-03 1 -2.549 2.991)" class="st0" cx="387.9" cy="333.2" rx="5.1" ry="3.5"/>
<path class="st0" d="M401.4,344.8c-0.2,0-0.5,0-0.7-0.1c-1.1-0.5-1.9-1.6-1.9-2.8c-0.3-1.3,0.2-2.6,1.3-3.4c0.1-0.1,0.3-0.1,0.5-0.1
	c1.2-0.2,2.4,1.1,2.7,2.9C403.4,343,402.6,344.6,401.4,344.8z"/>
<path class="st0" d="M365.4,328c-1.2,0.2-2,1.8-1.8,3.5c0.3,1.8,1.5,3,2.7,2.9c1.2-0.2,2-1.8,1.8-3.5
	C367.8,329.1,366.6,327.8,365.4,328z"/>
<path class="st0" d="M382.7,320.5c-0.3-1.8-1.5-3-2.7-2.9c-1.2,0.2-2,1.8-1.8,3.5c0.3,1.8,1.5,3,2.7,2.9
	C382.2,323.9,382.9,322.3,382.7,320.5z"/>
<ellipse transform="matrix(0.9896 -0.1441 0.1441 0.9896 -40.8982 54.5559)" class="st0" cx="356.2" cy="309.6" rx="2.2" ry="3.2"/>
<path class="st0" d="M411.5,299.8c0,14.3-33.8-11.2-62.6,8.8c-35.2,24.5-64.6,7-64.6-8.8c0-14.3,29.5-42.8,64.6-42.8
	S411.5,285.5,411.5,299.8z"/>
<path class="st6" d="M380.7,283.5c0,7.1-14.2,6.9-31.8,6.9s-31.8,0.2-31.8-6.9s14.2-18.9,31.8-18.9S380.7,276.4,380.7,283.5z"/>
<polygon class="st0" points="129.9,331.3 129.9,341.3 169.4,346.2 169.4,331.4 "/>
<path class="st2" d="M135.3,342l-0.6-10.7l-0.1-2.6l-25.3-2.2l0,7.5l7.1,1.4l-7.1,3.4l-0.1,19.9c0,2.5,2,4.5,4.5,4.5
	c1.5,0,2.9-0.7,3.7-1.9l3.3-4.7l7.8-11.1l7.2,0L135.3,342z"/>
<path class="st2" d="M304.9,314.9c-6.6,17.3-12.2,30.6-14.5,32.9c-2.5,2.5-19.7,3.6-41,3.9c-22.4,0.3-49.4-0.3-68.4-0.8h0
	c-14.4-0.4-24.3-0.8-24.3-0.8l0-5.5l0-13.3l0-2.7c0,0,0.5-0.1,1.4-0.4c1.6-0.5,4.6-1.3,8.6-2.5c12.4-3.7,34.1-10.2,50.4-15.4
	c5.4-1.7,10.1-3.3,13.8-4.7c4.2-1.5,7.1-2.7,7.7-3.3c3.7-3.6,5.4,0,7.7,3.6c2.4,3.6,3.1,0,6.2-2.7s10.1,1,10.1,1s0.1-2.4,0.2-6.3
	c0.1-5.7,0.4-14.5,0.6-23.4c0,0,0,0,0,0c0-0.4,0-0.8,0-1.2c4.8,4.2,9.9,8,15,12.8c3.3,3.1,8.4,8.3,12,11.9c0.7,0.8,1.7,1.7,2.4,2.5
	C297.3,305.1,301.3,309.9,304.9,314.9z"/>
<polygon class="st0" points="142.1,360 142.9,370 182.6,371.8 181.5,357 "/>
<path class="st2" d="M148.3,370.3l-1.4-10.6l-0.4-2.6l-25.4-0.2l0.6,7.5l7.2,0.8l-6.8,4l1.5,19.9c0.2,2.5,2.3,4.3,4.8,4.1
	c1.5-0.1,2.8-0.9,3.5-2.2l9.7-16.7l7.1-0.5L148.3,370.3z"/>
<path class="st2" d="M313.3,356.4c-8,12.5-106.8,24.8-143.9,17.8c0.1-1,0.2-2,0.3-3c0.5-4.4,1.6-9,2.4-13.5c0.4-1.9,0.7-3.8,1-5.7
	c1.3-0.2-0.1-0.1,1.5-0.3c2.1-0.4,4.2-0.6,6.3-0.8h0c0.6-0.1,1.4-0.1,2.2-0.2c18.9-1.3,42.9,4.2,59.8-5.1c4.8-2.6,5.1-3.4,5.8-4.2
	c4.1-4.9,4.5-0.8,8,0.9s2.9-1.3,3.8-4s5.3-2.3,7.8-2.7c-2.3-2.2-0.8-2.5-4.6-4.4c-5.7-2.7-15.1-6.8-21.8-9.5c0,0,0,0-0.1,0
	c-2.8-1.1-6.8-2.8-9.3-3.9c-2-0.8-5.4-2.4-6.5-2.8c-2.4-0.9-6.5,7.7-9,6.2c-0.9-0.5-1.6-1-1.9-1.2c-4.2-2.5-0.9-1.2-1.4-4.3
	c-0.1-0.4,0.1-1.4,0.1-1.7c-0.1-0.8,0.1-2.1-0.2-2.5c-0.4-0.5-1.7,1.9-2.5,2.2c-0.4,0.2-1.8,1.3-2.9,1.2c-5-0.5-8.4-5.4-10.1-10.3
	c-14.6-6.3-24.2-21-26.5-34.8c-1.9-11.6,1.5-20.9,4.6-28.5c2.7-6.9,3.6-5.9,6.6-10.8c-0.1-0.9-0.1-0.6-0.1-0.6c0-0.1,0-0.5-0.1-1.6
	c-0.2-3.2-0.5-12.5-0.7-16.8c1.3-1.4,2.7-2.6,4.2-3.7c4.7-3.5,11.8-5.5,17-6.5c5.9-1.1,13.5-0.3,17.8,0.3c6.6,1,8.8,2.3,14.4,3.5
	c0,10.5,2.2,7.6,1.1,21.3c-1.1,13.7,36.9,55,42,59.8c3.3,3.1,8.4,8.3,12,11.9c0.7,0.8,1.7,1.7,2.4,2.5c4.2,4.5,12.9,15.5,13.3,16.2
	c0.5,0.8,0.7,1.5,1.2,2.3C307.3,319.2,321.4,343.8,313.3,356.4z"/>
<path class="st0" d="M443.7,244l-2,35.9c0,3.8,3.1,6.9,6.9,6.9c0,0,0,0,0,0c19.7,10,25.8,10.3,43.4,0c3.8,0,6.9-3.1,6.9-6.9
	c0,0,0,0,0,0l-2-36.8l2-9.7c0-3.8-3.1-6.9-6.9-6.9c0,0,0,0,0,0h-43.4c-3.8,0-6.9,3.1-6.9,6.9c0,0,0,0,0,0L443.7,244z"/>
<path class="st0" d="M409.9,223.4l-2.3,4.6l39.1,23.1l-3.1,20.5l-38.5-38.5l-2.4,4.8l-0.8-1.5c-2.2-4.4-0.4-9.7,4-11.9
	C407.2,223.7,408.5,223.4,409.9,223.4z"/>
<path class="st0" d="M454.9,227c0,5.9,7.3,10.7,16.4,10.7s16.4-4.8,16.4-10.7c0-0.2,0-0.3,0-0.5h-32.7
	C454.9,226.6,454.9,226.8,454.9,227z"/>
<path class="st0" d="M475.9,210c0-2.5-2-4.5-4.5-4.5h-0.2c-2.5,0-4.5,2-4.5,4.5v31.3h9.2V210z"/>
<path class="st0" d="M307.9,271.4c-1.2-1.3-2.8-2.1-4.6-2.2c0,0-31.8-3.8-36.5-7c-3.3-0.1-6.1,2.3-6.5,5.6l-30.3,5.7
	c-3,0.6-4.9,3.4-4.4,6.4c0.6,3,3.4,4.9,6.4,4.4l30.1-5.7c1.2,2.7,4.1,4.3,7,3.8l33.9-6.4C308,275,311.1,275.1,307.9,271.4z"/>
<path class="st0" d="M205.2,214.7l-7.3-70.9c-0.6-6.3,3.9-11.8,10.1-12.6l0,0c6.3-0.7,12,3.8,12.8,10.1c0,0.2,0,0.4,0.1,0.6
	l5.3,73.9l5.1,44.7c5.3,1.6,8.4,7.1,6.8,12.5c-1.6,5.3-7.1,8.4-12.5,6.8s-8.4-7.1-6.8-12.5c0.2-0.6,0.4-1.1,0.6-1.7L205.2,214.7z"/>
<path class="st0" d="M192.9,159L192.9,159c-1.2-0.9-1.6-2.6-1-4c0.3-0.9,0.4-1.8,0.2-2.7c0-0.2-0.1-0.3-0.2-0.5
	c-0.9-2-0.7-4.3,0.4-6.1c1.9-3,2.4-7.2,2.4-10.8c0-4-0.2-8.1,0.7-12c1.4-5.6,5.7-11.1,12.8-9.7c3,0.6,5.7,2.3,7.6,4.7
	c4.1,4.9,5,11.5,5.8,17.7l0.9-2.6c0.8,6.8,2.9,13.4,6.3,19.4c-1.6-0.1-2.4,2.1-1.7,3.5c0.7,1.4,2.2,2.2,3.5,3
	c1.6,1.1,3.3,2.8,2.1,4.9c-0.6,1-1.5,1.8-2.7,2c-10.5,2.8-21.5,3.4-32.3,1.8c-2.4-0.4-5-1-6.5-2.9S190.5,159.2,192.9,159z"/>
</svg>
