<?xml version="1.0" encoding="utf-8"?>
<!-- Generator: Adobe Illustrator 24.2.0, SVG Export Plug-In . SVG Version: 6.00 Build 0)  -->
<svg version="1.1" id="Layer_1" xmlns="http://www.w3.org/2000/svg" xmlns:xlink="http://www.w3.org/1999/xlink" x="0px" y="0px"
	 viewBox="0 0 649.7 516.2" style="enable-background:new 0 0 649.7 516.2;" xml:space="preserve">
<style type="text/css">
	.st0{fill:#0B3639;}
	.st1{fill:#3F3D56;}
	.st2{fill:#A0616A;}
	.st3{fill:#658A90;}
</style>
<path class="st0" d="M158.8,515.2h-51c-3.6,0-6.5-2.9-6.5-6.5v-106c0-3.6,2.9-6.5,6.5-6.5h51c3.6,0,6.5,2.9,6.5,6.5v106
	C165.3,512.3,162.4,515.2,158.8,515.2z"/>
<path class="st1" d="M279.8,516.2h-51c-4.1,0-7.5-3.4-7.5-7.5v-206c0-4.1,3.4-7.5,7.5-7.5h51c4.1,0,7.5,3.4,7.5,7.5v206
	C287.3,512.9,284,516.2,279.8,516.2z M228.8,297.2c-3,0-5.5,2.5-5.5,5.5v206c0,3,2.5,5.5,5.5,5.5h51c3,0,5.5-2.5,5.5-5.5v-206
	c0-3-2.5-5.5-5.5-5.5H228.8z"/>
<path class="st1" d="M400.8,516.2h-51c-4.1,0-7.5-3.4-7.5-7.5v-337c0-4.1,3.4-7.5,7.5-7.5h51c4.1,0,7.5,3.4,7.5,7.5v337
	C408.3,512.9,405,516.2,400.8,516.2z M349.8,166.2c-3,0-5.5,2.5-5.5,5.5v337c0,3,2.5,5.5,5.5,5.5h51c3,0,5.5-2.5,5.5-5.5v-337
	c0-3-2.5-5.5-5.5-5.5H349.8z"/>
<path class="st0" d="M523,515.7h-51c-3.6,0-6.5-2.9-6.5-6.5v-475c0-3.6,2.9-6.5,6.5-6.5h51c3.6,0,6.5,2.9,6.5,6.5v475
	C529.5,512.8,526.6,515.7,523,515.7z"/>
<path class="st2" d="M205.8,222.4c0.7-5.5-3.2-10.5-8.7-11.2c-0.6-0.1-1.2-0.1-1.8-0.1l-17.8-32.6l-4,14l12.2,29.9
	c0.6,5.5,5.7,9.5,11.2,8.9C201.6,230.6,205.2,227,205.8,222.4L205.8,222.4z"/>
<polygon class="st2" points="68.8,351.1 78.7,358.3 111.3,323.6 96.7,312.9 "/>
<path class="st0" d="M91.1,381.5L60,358.8l0,0l8.8-12l0,0l19.1,13.9C94.5,365.5,95.9,374.8,91.1,381.5L91.1,381.5L91.1,381.5z"/>
<polygon class="st2" points="121.2,389.4 133.5,389.4 139.3,342.1 121.2,342.1 "/>
<path class="st0" d="M157.1,400.8l-38.5,0l0,0l0-14.9l0,0l23.6,0C150.4,385.9,157.1,392.5,157.1,400.8L157.1,400.8L157.1,400.8z"/>
<path class="st0" d="M158,204.9c0,0,6,58-9,98l-11,76h-19l2-90l-7-80C114,208.9,128,172.9,158,204.9z"/>
<polygon class="st0" points="93,208.9 113,277.9 74,339.9 93.5,356.4 138,286.9 125,201.9 "/>
<circle class="st2" cx="144" cy="29.7" r="24.6"/>
<path class="st3" d="M123.5,63.4c0,0,15-10,32,12l4.5,138.5c0,0-13-18-40-1s-33-2-33-2S68,67.9,123.5,63.4z"/>
<path class="st3" d="M154.3,75.1L154.3,75.1c8.9,0.5,16.1,7.6,16.5,16.6l3.2,60.3l21,57l-12,10l-39-68L136,95
	c-1.4-9.6,5.3-18.4,14.9-19.8C152,75.1,153.2,75,154.3,75.1z"/>
<path class="st0" d="M126,48.1c4,4.3,11.5,2,12-3.9c0-0.5,0-0.9,0-1.4c-0.3-2.6-1.8-4.9-1.4-7.7c0.1-0.7,0.3-1.3,0.7-1.9
	c3.2-4.3,10.7,1.9,13.7-2c1.9-2.4-0.3-6.1,1.1-8.8c1.9-3.5,7.4-1.8,10.9-3.7c3.9-2.1,3.6-8.1,1.1-11.7c-3.1-4.4-8.6-6.8-14-7.1
	s-10.7,1.1-15.8,3.1c-5.7,2.2-11.4,5.3-14.9,10.3c-4.3,6.1-4.7,14.3-2.5,21.5C118.3,39.3,122.7,44.6,126,48.1z"/>
</svg>
