<?xml version="1.0" encoding="utf-8"?>
<!-- Generator: Adobe Illustrator 24.2.0, SVG Export Plug-In . SVG Version: 6.00 Build 0)  -->
<svg version="1.1" id="Layer_1" xmlns="http://www.w3.org/2000/svg" xmlns:xlink="http://www.w3.org/1999/xlink" x="0px" y="0px"
	 viewBox="0 0 746 721.3" style="enable-background:new 0 0 746 721.3;" xml:space="preserve">
<style type="text/css">
	.st0{fill:#F1F1F1;}
	.st1{fill:#FFFFFF;}
	.st2{fill:#0B3639;}
	.st3{fill:#658A90;}
	.st4{fill:#9F616A;}
	.st5{fill:#FFB7B7;}
	.st6{opacity:0.2;enable-background:new    ;}
	.st7{fill:#CBCBCB;}
</style>
<path class="st0" d="M680.6,720.6v-72.3C680.6,648.3,708.8,699.6,680.6,720.6z"/>
<path class="st0" d="M682.3,720.6L629,671.7C629.1,671.7,685.9,685.6,682.3,720.6z"/>
<path class="st1" d="M494.4,319.2L211.6,484.5c-2.1,1.2-4.7,0.5-5.9-1.6L23.8,171.8c-1.2-2.1-0.5-4.7,1.6-5.9L308.2,0.6
	c2.1-1.2,4.7-0.5,5.9,1.6l181.8,311.1C497.1,315.3,496.4,318,494.4,319.2z"/>
<path class="st2" d="M494.4,319.2L211.6,484.5c-2.1,1.2-4.7,0.5-5.9-1.6L23.8,171.8c-1.2-2.1-0.5-4.7,1.6-5.9L308.2,0.6
	c2.1-1.2,4.7-0.5,5.9,1.6l181.8,311.1C497.1,315.3,496.4,318,494.4,319.2z M26.3,167.4c-1.2,0.7-1.7,2.3-0.9,3.5L207.2,482
	c0.7,1.2,2.3,1.7,3.5,0.9l282.8-165.3c1.2-0.7,1.7-2.3,0.9-3.5L312.6,3c-0.7-1.2-2.3-1.7-3.5-0.9L26.3,167.4z"/>
<path class="st3" d="M208,198.3l-70.1,41c-2.1,1.2-4.7,0.5-5.9-1.6l-41-70.1c-1.2-2.1-0.5-4.7,1.6-5.9l70.1-41
	c2.1-1.2,4.7-0.5,5.9,1.6l41,70.1C210.8,194.5,210.1,197.1,208,198.3z M93.4,163.2c-1.2,0.7-1.7,2.3-0.9,3.5l41,70.1
	c0.7,1.2,2.3,1.7,3.5,0.9l70.1-41c1.2-0.7,1.7-2.3,0.9-3.5l-41-70.1c-0.7-1.2-2.3-1.7-3.5-0.9L93.4,163.2z"/>
<path class="st2" d="M192.9,218.7l-70.1,41c-1.9,1.1-4.2,0.5-5.3-1.4l-41-70.1c-1.1-1.9-0.5-4.2,1.4-5.3l70.1-41
	c1.9-1.1,4.2-0.5,5.3,1.4l41,70.1C195.4,215.2,194.8,217.6,192.9,218.7z"/>
<path class="st3" d="M362.2,165.8L142.8,294c-1.9,1.1-4.2,0.5-5.3-1.4s-0.5-4.2,1.4-5.3l0,0l219.4-128.2c1.9-1.1,4.2-0.5,5.3,1.4
	S364.1,164.7,362.2,165.8L362.2,165.8z"/>
<path class="st3" d="M322.7,219.9l-166.4,97.2c-1.9,1.1-4.2,0.5-5.3-1.4s-0.5-4.2,1.4-5.3l0,0l166.4-97.2c1.9-1.1,4.2-0.5,5.3,1.4
	S324.6,218.8,322.7,219.9L322.7,219.9z"/>
<path class="st3" d="M311.7,81.2l-97,56.7c-1.9,1.1-4.2,0.5-5.3-1.4s-0.5-4.2,1.4-5.3l97-56.7c1.9-1.1,4.2-0.5,5.3,1.4
	S313.6,80.1,311.7,81.2z"/>
<path class="st3" d="M301,118.5L228.3,161c-1.9,1.1-4.2,0.5-5.3-1.4s-0.5-4.2,1.4-5.3l0,0l72.8-42.5c1.9-1.1,4.2-0.5,5.3,1.4
	C303.5,115,302.9,117.4,301,118.5z"/>
<path class="st3" d="M389.2,212.1L169.9,340.3c-1.9,1.1-4.2,0.5-5.3-1.4s-0.5-4.2,1.4-5.3l0,0l219.4-128.2c1.9-1.1,4.2-0.5,5.3,1.4
	S391.1,211,389.2,212.1L389.2,212.1z"/>
<path class="st3" d="M349.8,266.2l-166.4,97.2c-1.9,1.1-4.2,0.5-5.3-1.4s-0.5-4.2,1.4-5.3l0,0l166.4-97.2c1.9-1.1,4.2-0.5,5.3,1.4
	S351.6,265.1,349.8,266.2L349.8,266.2z"/>
<path class="st3" d="M416.3,258.3L196.9,386.5c-1.9,1.1-4.2,0.5-5.3-1.4s-0.5-4.2,1.4-5.3l0,0l219.4-128.2c1.9-1.1,4.2-0.5,5.3,1.4
	S418.1,257.2,416.3,258.3z"/>
<path class="st3" d="M429.8,281.5L210.4,409.7c-1.9,1.1-4.2,0.5-5.3-1.4s-0.5-4.2,1.4-5.3l219.4-128.2c1.9-1.1,4.2-0.5,5.3,1.4
	S431.6,280.4,429.8,281.5L429.8,281.5z"/>
<path class="st2" d="M358.9,371.5c3-3.6,5.8-7.4,8.2-11.5c2.2-3.6,4.3-7.5,4.8-11.8c0.5-3.7-0.8-7.4-3.5-10
	c-2.6-2.4-6.5-2.9-9.6-1.1s-5,5.2-4.9,8.8c0.3,3.9,2.3,7.6,5.5,9.8c6.5,4.7,16.6,4.5,23.5,0.9c7.8-4,11.8-14.6,5.7-21.8
	c-1.3-1.5-3.4,0.2-3.1,1.8c0.9,4.7,5.4,7.9,10.2,7c4.3-0.8,7.4-4.7,7.1-9.1l-2.7,1.6c6.9,3,14.8,2.2,20.9-2.2
	c1.5-1.1,2.8-2.3,3.9-3.8c1.3-1.8,3.6-2.9,5.4-4.2l13.2-9.1c1.9-1.3,0.1-4.5-1.9-3.2l-11.9,8.3c-2,1.4-4,2.7-6,4.1
	c-1.4,1-2.3,2.6-3.6,3.8c-5,4.5-12.1,5.7-18.3,3.1c-0.9-0.5-2-0.1-2.5,0.8c-0.1,0.3-0.2,0.6-0.2,0.8c0.3,2.8-1.7,5.3-4.5,5.6
	c-2.7,0.3-5.2-1.6-5.6-4.4l-3.1,1.8c3.9,4.7,1.3,11.8-3.2,14.9c-5.1,3.5-12.6,4.1-18.3,1.9c-2.8-1-5.1-3.1-6.4-5.8
	c-1.1-2.5-0.6-5.5,1.5-7.4c1.8-1.8,4.6-1.8,6.4-0.1c1.9,2,2.7,4.8,2.2,7.5c-0.6,3.7-2.6,7.1-4.5,10.3c-2.2,3.6-4.6,7-7.3,10.2
	C354.7,370.7,357.3,373.3,358.9,371.5L358.9,371.5z"/>
<path class="st4" d="M399.8,459.4c0.3,0.3,0.6,0.7,0.9,1.1l40.8-1l4.8-8.7l14.1,5.5l-6.9,16.2c-1.2,2.7-3.9,4.3-6.9,4l-46.2-5.6
	c-3,3.7-8.4,4.4-12.1,1.4s-4.4-8.4-1.4-12.1s8.4-4.4,12.1-1.4C399.3,458.9,399.5,459.1,399.8,459.4L399.8,459.4z"/>
<polygon class="st5" points="524.8,707.3 511.3,707.3 504.9,655.4 524.8,655.5 "/>
<path class="st2" d="M528.2,720.3h-43.3v-0.5c0-9.3,7.5-16.9,16.9-16.9l0,0h26.5L528.2,720.3z"/>
<polygon class="st5" points="402.8,707 390.4,701.7 404.9,651.5 423.1,659.3 "/>
<path class="st2" d="M400.8,720.3l-39.8-17l0.2-0.5c3.7-8.6,13.6-12.5,22.1-8.9l0,0l24.3,10.4L400.8,720.3z"/>
<polygon class="st5" points="459.5,470.4 458.5,486.1 486.9,489.2 516.6,492.4 507.8,468.5 "/>
<path class="st2" d="M457.6,486.3l-11-76.9l19.1-6.3l5.6-7.7l27.3,1.6l4,9l14.6,6.9l-2.2,41.6l1.6,34.8L457.6,486.3z"/>
<path class="st2" d="M450.7,465.7l-19.4-7.8l0.1-0.3c0.1-0.3,8.4-34.9,9.5-40.5c1.1-5.8,5.3-7.4,5.5-7.5h0.1l7.7,2.3l3.4,26.6
	L450.7,465.7z"/>
<path class="st2" d="M412.8,697.9l-25.9-5.3l41.4-114.2l14.2-38.9c0,0,9-31.2,13-43.3l2.4-16.2l58,6.4c0,0,16.2,23.8,11.3,62.5
	l2.2,145.7l-25.9,1.3L481.8,549l-38.1,80.5c0,0-12,34.4-20.6,41.8L412.8,697.9z"/>
<path class="st4" d="M492.6,491.8c0.5,0,0.9,0,1.4,0.1l27-30.6l-3.1-9.4l13.6-6.6l7.2,16.1c1.2,2.7,0.5,5.8-1.8,7.7l-35.5,30.1
	c0.7,4.7-2.5,9.1-7.2,9.9c-4.7,0.7-9.1-2.5-9.9-7.2c-0.7-4.7,2.5-9.1,7.2-9.9C491.9,491.8,492.3,491.8,492.6,491.8L492.6,491.8z"/>
<path class="st2" d="M518.9,464.2l-11.3-26.5l4.4-18.5l4.7-6c0.7-0.3,1.5-0.3,2.2,0c1.7,0.7,3.2,2.9,4.4,6.4l10.6,30.1L518.9,464.2z
	"/>
<path class="st2" d="M460.4,385.7v-20c0-14.8,12-26.8,26.8-26.8s26.8,12,26.8,26.8v20c0,2-1.6,3.6-3.6,3.6H464
	C462,389.3,460.4,387.6,460.4,385.7z"/>
<circle class="st4" cx="481.7" cy="369.1" r="19.7"/>
<path class="st2" d="M454,367.3c0-11.7,9.5-21.2,21.2-21.2h4c11.7,0,21.2,9.5,21.2,21.2v0.4H492l-2.9-8.1l-0.6,8.1h-4.4l-1.5-4.1
	l-0.3,4.1H454V367.3z"/>
<path class="st2" d="M479.7,391.5c-0.8-1.1-0.9-2.6-0.3-3.8c4.2-8.1,10.2-23,2.3-32.2l-0.6-0.7H504v34.3l-20.8,3.7
	c-0.2,0-0.4,0.1-0.6,0.1C481.5,393,480.4,392.4,479.7,391.5z"/>
<polygon class="st4" points="212.9,695.9 225,700.3 247.6,655.5 229.6,649.1 "/>
<path class="st2" d="M205.6,706.6l5.6-15.7l23.9,8.5c8.4,3,12.8,12.3,9.8,20.7l-0.2,0.5L205.6,706.6z"/>
<polygon class="st4" points="291.8,707.9 304.7,707.9 310.9,658.2 291.8,658.2 "/>
<path class="st2" d="M288.5,703.7h25.4l0,0c8.9,0,16.2,7.2,16.2,16.2l0,0v0.5h-41.6V703.7z"/>
<path class="st0" d="M262.5,390.3l5.6-11.1c0,0,20.9,5.2,22.8,17.3L262.5,390.3z"/>
<polygon class="st2" points="239.3,517 254.6,602 214.1,673.6 238.3,683.1 279.3,613.7 284.5,594.8 287.7,693.6 309.5,692.9 
	319.5,600.7 303.5,514.9 "/>
<path class="st2" d="M268.3,537.1c-22.4,0-36.6-4.3-36.9-4.4l-0.5-0.1l11.7-54.1l0.5-49.9c0-21.1,13.9-36.7,15.8-38.2
	c0.7-2.6,2.4-4.8,4.8-5.9c4.6-2.1,10.3,0.4,10.6,0.5l17,6.4l0.1,0.2c0.2,0.6,22.6,74.2,22.6,74.2s-1.4,64.3-1.8,66.4
	C312.1,532.3,280.7,537.1,268.3,537.1z"/>
<circle class="st4" cx="285.5" cy="352.7" r="23"/>
<polygon class="st6" points="259.8,432.7 300.1,488.9 306,462.6 "/>
<path class="st2" d="M386,470.9c-4.3,3.4-10.5,2.7-13.9-1.6c-0.4-0.5-0.7-0.9-1-1.5l-34.6,5.5l7.5-16.6l31.8-2.7
	c5-2.3,10.9-0.1,13.1,4.9C390.9,463.2,389.6,468.1,386,470.9z"/>
<polygon class="st0" points="345.8,455.8 358.3,454.6 361.7,472 346.1,472.3 "/>
<path class="st2" d="M356,478l-61-5.4l-30.8-49l-0.1-0.4c-2-9.1,3.8-18.1,12.9-20.1c7.5-1.6,15.1,2,18.6,8.8l18.1,35.3l36.5,5.5
	L356,478z"/>
<path class="st2" d="M265.9,372.7l19.1,0.7c1.2,0,4.3-12.5,4.7-15.1c0.7-3.5,3.9-6,7.4-5.8c1.4,0.1,5-2.5,8.8-5.7
	c7.1-6,6.7-17.3-1.1-22.4c-0.2-0.1-0.4-0.3-0.6-0.4c-4.9-2.7-10.6-3.7-16.2-3.7c-5.1-0.1-10.3,0.6-14.8,3
	c-8,4.3-12.3,13.7-12.7,22.8s2.5,18,5.9,26.5"/>
<path class="st7" d="M744.6,721.3H1c-0.6,0-1-0.4-1-1s0.4-1,1-1h744c0.6,0,1,0.4,1,1C746,720.9,745.2,721.3,744.6,721.3z"/>
</svg>
