<?xml version="1.0" encoding="utf-8"?>
<!-- Generator: Adobe Illustrator 24.2.0, SVG Export Plug-In . SVG Version: 6.00 Build 0)  -->
<svg version="1.1" id="Layer_1" xmlns="http://www.w3.org/2000/svg" xmlns:xlink="http://www.w3.org/1999/xlink" x="0px" y="0px"
	 viewBox="0 0 801.9 597.5" style="enable-background:new 0 0 801.9 597.5;" xml:space="preserve">
<style type="text/css">
	.st0{fill:#0B3639;}
	.st1{fill:#FFFFFF;}
	.st2{fill:#A0616A;}
	.st3{fill:#2F2E41;}
	.st4{fill:#E5E5E5;}
	.st5{fill:#CBCBCB;}
	.st6{fill:#658A90;}
	.st7{fill:#F1F1F1;}
</style>
<circle id="b" class="st0" cx="436.3" cy="42" r="18.9"/>
<path id="c-1221" class="st1" d="M434.4,49.2c-0.4,0-0.8-0.1-1.2-0.4l0,0l-4.4-3.4c-0.9-0.7-1-1.9-0.4-2.8c0.7-0.9,1.9-1,2.8-0.4
	l0,0l2.9,2.2l6.8-8.9c0.7-0.9,1.9-1,2.8-0.4l0,0l0,0v0.1v-0.1c0.9,0.7,1,1.9,0.4,2.8l-8,10.4C435.6,48.9,435.1,49.2,434.4,49.2
	L434.4,49.2z"/>
<circle id="d" class="st0" cx="436.3" cy="170" r="18.9"/>
<path id="e-1222" class="st1" d="M434.4,177.2c-0.4,0-0.8-0.1-1.2-0.4l0,0l-4.4-3.4c-0.9-0.7-1-1.9-0.4-2.8s1.9-1,2.8-0.4l2.9,2.2
	l6.8-8.9c0.7-0.9,1.9-1,2.8-0.4l0,0l0,0v0.1v-0.1c0.9,0.7,1,1.9,0.4,2.8l-8,10.4C435.6,176.9,435.1,177.2,434.4,177.2L434.4,177.2z"
	/>
<path class="st2" d="M483.9,369c-0.2-5.9,4.4-10.9,10.3-11.2c0.6,0,1.3,0,1.9,0.1l17.3-34l9.8,17.3l-18,29.7
	c-1.2,5.8-6.9,9.6-12.8,8.4C487.6,378.2,484,373.9,483.9,369L483.9,369z"/>
<polygon class="st2" points="564.7,583.2 551.1,583.2 544.6,530.7 564.7,530.7 "/>
<path class="st3" d="M568.2,596.4h-43.9v-0.6c0-9.4,7.6-17.1,17.1-17.1l0,0h26.8L568.2,596.4z"/>
<polygon class="st2" points="638.5,583.2 624.9,583.2 618.4,530.7 638.5,530.7 "/>
<path class="st3" d="M642,596.4h-43.9v-0.6c0-9.4,7.6-17.1,17.1-17.1l0,0H642L642,596.4z"/>
<path class="st4" d="M499.3,346l-5.9,9.9c0,0,9.9,0,11.9,14.9l7.9-9.9L499.3,346z"/>
<path class="st0" d="M608.7,318.6c0,0,15.8,41.6,18.8,67.3s7.9,94.1,7.9,94.1l9.9,88.1l-27.7,4L605.7,483L579,394.8l-5.9,88.1
	l-5,80.2l-25.7,1l-2-83.2L529.5,375l5.9-50.5L608.7,318.6z"/>
<polygon class="st2" points="589.4,192.3 599.3,199.2 612.2,329 532,330.9 542.9,240.8 552.8,215.1 559.9,205.6 "/>
<path class="st0" d="M591.4,285.4l3-89.6c0,0,5.9,0.5,7.9,3.4s34.7,8.9,34.7,8.9l-5.9,92.1c0,0,24.8,73.3,15.8,77.2s-24.8,3-24.8,3
	L591.4,285.4z"/>
<path class="st0" d="M543.4,274l10.5-60.4l-23.4,15.8l5.9,43.6l-5,29.7c0,0-18.8,82.2-12.9,85.2s12.9,0,12.9,0l11.9-83.2L543.4,274
	L543.4,274z"/>
<path class="st0" d="M537.4,227.5l-6.9,2l-3,39.6l-5,34.7l-23.8,42.6c0,0,11.9-7.9,16.8,14.9l26.2-45.6L537.4,227.5z"/>
<path class="st2" d="M591.3,360.8c0.9-5.9,6.4-9.9,12.3-8.9c0.6,0.1,1.2,0.3,1.8,0.5l23.6-30l6.3,18.8l-23.4,25.6
	c-2.3,5.5-8.7,8.1-14.2,5.8C593.2,370.6,590.5,365.8,591.3,360.8z"/>
<polygon class="st4" points="631.5,350.2 622.6,361.1 610.7,340.3 615.7,331.4 "/>
<path class="st0" d="M629.5,211.6l7.9-4c0,0,5.9,7.9,6.9,14.9s5.9,15.8,5.9,20.8s13.9,51.5,13.9,51.5l-31.7,64.4
	c0,0-6.9-23.8-21.8-25.7l24.8-34.7L621.6,274L629.5,211.6z"/>
<path class="st5" d="M800.9,597h-381c-0.6,0-1-0.4-1-1s0.4-1,1-1h381c0.6,0,1,0.4,1,1S801.5,597,800.9,597z"/>
<path class="st1" d="M365,212H0v-84h365V212z"/>
<path class="st6" d="M52.7,155.8c-2,0-3.6,1.6-3.6,3.6s1.6,3.6,3.6,3.6h259.7c2,0,3.6-1.6,3.6-3.6s-1.6-3.6-3.6-3.6H52.7z"/>
<path class="st6" d="M52.7,177.1c-2,0-3.6,1.6-3.6,3.5c0,2,1.6,3.6,3.5,3.6h164.2c2,0,3.6-1.6,3.6-3.6s-1.6-3.6-3.6-3.6H52.7V177.1z
	"/>
<path class="st0" d="M365,212H0v-84h365V212z M6,206h353v-72H6V206z"/>
<path class="st1" d="M365,340H0v-84h365V340z"/>
<path class="st6" d="M52.7,283.8c-2,0-3.6,1.6-3.6,3.6s1.6,3.6,3.6,3.6h259.7c2,0,3.6-1.6,3.6-3.6s-1.6-3.6-3.6-3.6H52.7z"/>
<path class="st6" d="M52.7,305.1c-2,0-3.6,1.6-3.6,3.5c0,2,1.6,3.6,3.5,3.6h164.2c2,0,3.6-1.6,3.6-3.6s-1.6-3.6-3.6-3.6H52.7V305.1z
	"/>
<path class="st0" d="M365,340H0v-84h365V340z M6,334h353v-72H6V334z"/>
<path class="st1" d="M368,84H3V0h365V84z"/>
<path class="st6" d="M55.7,27.8c-2,0-3.6,1.6-3.5,3.6c0,2,1.6,3.5,3.5,3.5h259.7c2,0,3.6-1.6,3.5-3.6c0-2-1.6-3.5-3.5-3.5
	C315.3,27.8,55.7,27.8,55.7,27.8z"/>
<path class="st6" d="M55.7,49.1c-2,0-3.6,1.6-3.6,3.5s1.6,3.6,3.5,3.6h164.2c2,0,3.6-1.6,3.6-3.5c0-2-1.6-3.6-3.5-3.6l0,0H55.7
	L55.7,49.1z"/>
<path class="st0" d="M368,84H3V0h365V84z M9,78h353V6H9V78z"/>
<path class="st7" d="M739.2,597.5v-72.3C739.2,525.1,767.4,576.4,739.2,597.5z"/>
<path class="st7" d="M741,597.4l-53.3-48.9C687.7,548.5,744.5,562.4,741,597.4z"/>
<circle id="f" class="st0" cx="484.3" cy="347.8" r="18.9"/>
<path id="g-1223" class="st1" d="M482.4,355.1c-0.4,0-0.8-0.1-1.2-0.4l0,0l-4.4-3.4c-0.9-0.7-1-1.9-0.4-2.8c0.7-0.9,1.9-1,2.8-0.4
	l0,0l2.9,2.2l6.8-8.9c0.7-0.9,1.9-1,2.8-0.4l0,0l0,0v0.1V341c0.9,0.7,1,1.9,0.4,2.8l-8,10.4C483.6,354.8,483.1,355.1,482.4,355.1
	L482.4,355.1z"/>
<circle class="st2" cx="561.6" cy="166.9" r="27.1"/>
<path class="st0" d="M585.3,187.7c0,0,8-16.3,7.9-22.5s-4.5-22.2-6.4-23.2s-21.8-11.2-27.2-8.1s-14.9,13.5-25.2,16.3
	c-2.9,0.8-0.4,15.7-0.4,15.7l12-1.7c0,0,12.5-11.2,13.1-3.6s12.2,4.5,12.2,4.5l0.1,6.2l4.8,0.3l1.3-6.6c0,0,2.1,13.5-0.6,20.5
	S585.3,187.7,585.3,187.7L585.3,187.7z"/>
</svg>
