<?xml version="1.0" encoding="utf-8"?>
<!-- Generator: Adobe Illustrator 24.2.0, SVG Export Plug-In . SVG Version: 6.00 Build 0)  -->
<svg version="1.1" id="Layer_1" xmlns="http://www.w3.org/2000/svg" xmlns:xlink="http://www.w3.org/1999/xlink" x="0px" y="0px"
	 viewBox="0 0 718.5 601.7" style="enable-background:new 0 0 718.5 601.7;" xml:space="preserve">
<style type="text/css">
	.st0{fill:#F0F0F0;}
	.st1{fill:#0B3639;}
	.st2{fill:#E6E6E6;}
	.st3{fill:#FFFFFF;}
	.st4{fill:#658A90;}
	.st5{fill:#A0616A;}
	.st6{fill:#2F2E41;}
	.st7{opacity:0.2;fill:#0B3639;enable-background:new    ;}
	.st8{fill:#CACACA;}
</style>
<path class="st0" d="M285.3,455.6H50.2c-4.4,0-7.9-3.5-7.9-7.9v-34.4c0-4.4,3.5-7.9,7.9-7.9h235.1c4.4,0,7.9,3.5,7.9,7.9v34.4
	C293.2,452.1,289.6,455.6,285.3,455.6z"/>
<path class="st1" d="M262.4,450.3H55.5c-4.4,0-7.9-3.5-7.9-7.9v-23.8c0-4.4,3.5-7.9,7.9-7.9h224.4c4.4,0,7.9,3.5,7.9,7.9v6.3
	C287.8,438.9,276.5,450.3,262.4,450.3z"/>
<path class="st2" d="M191.1,428.1H96.6c-1.1,0-2-0.9-2-2s0.9-2,2-2h94.5c1.1,0,2,0.9,2,2S192.2,428.1,191.1,428.1z"/>
<path class="st2" d="M238.9,436.4H96.6c-1.1,0-2-0.9-2-2s0.9-2,2-2l0,0h142.3c1.1,0,2,0.9,2,2S240,436.4,238.9,436.4z"/>
<path class="st3" d="M300.3,366h-268c-4.5,0-8.1-3.6-8.1-8.1V153.1c0-4.5,3.6-8.1,8.1-8.1h268c4.5,0,8.1,3.6,8.1,8.1V358
	C308.3,362.4,304.7,366,300.3,366z"/>
<path class="st1" d="M300.3,367h-268c-5,0-9.1-4.1-9.1-9.1V153.1c0-5,4.1-9.1,9.1-9.1h268c5,0,9.1,4.1,9.1,9.1V358
	C309.3,363,305.3,367,300.3,367z M32.3,146c-3.9,0-7.1,3.2-7.1,7.1V358c0,3.9,3.2,7.1,7.1,7.1h268c3.9,0,7.1-3.2,7.1-7.1V153.1
	c0-3.9-3.2-7.1-7.1-7.1H32.3z"/>
<path class="st4" d="M24.8,327v31c0,4.1,3.3,7.4,7.4,7.4h268c4.1,0,7.4-3.3,7.4-7.4v-31H24.8z"/>
<rect x="166.3" y="70.3" transform="matrix(0.5392 -0.8422 0.8422 0.5392 -122.5572 250.1582)" class="st1" width="2" height="333.6"/>
<rect x="1.3" y="236.1" transform="matrix(0.8422 -0.5392 0.5392 0.8422 -101.3086 128.0625)" class="st1" width="333.6" height="2"/>
<polygon class="st5" points="545.4,587.8 533,587.8 527.1,540 545.4,540 "/>
<path class="st6" d="M545,583.7l-13.2-5.4l-0.4-0.2l-7.3,5.5c-8.3,0-15.2,6.6-15.5,14.9c0,0.2,0,0.5,0,0.7v0.5h39.9v-16.1L545,583.7
	z"/>
<polygon class="st5" points="516.3,576.3 504.7,580.4 483.2,537.2 500.5,531.2 "/>
<path class="st6" d="M514.7,572.5l-14.3-0.7H500l-5.1,7.6c-7.9,2.8-12.1,11.2-9.7,19.2c0.1,0.2,0.1,0.4,0.2,0.6l0.2,0.5l37.7-13.3
	l-5.3-15.1L514.7,572.5z"/>
<path class="st4" d="M549.7,381.7c11.3-0.4-2.7,89.9-2.7,89.9s4.1,79.3,3.2,83.5c-0.9,4.2-0.1,15.4-0.1,15.4c-2.2-4-25.1-1-25.1-1
	l-3.1-80.4L506,424.7l-22.1,43.2l21.1,66.3c0,0,8.6,7.9,7.7,11.1c-0.9,3.1-23.3,10.2-27.5,10.4s-2.3-5.1-2.5-10.2
	s-19.6-52.9-26.4-69.2s-1.5-39.2,2-55.8s21.8-47.9,21.8-47.9C502.9,346.8,538.4,382.2,549.7,381.7z"/>
<path class="st5" d="M411.6,308.7c2.3,4.5,7.9,6.2,12.4,3.9c0.5-0.3,0.9-0.5,1.4-0.9l27.3,17.8l-0.1-16.9l-25.9-14.3
	c-3.4-3.8-9.2-4.2-13-0.8C410.4,300.3,409.6,305,411.6,308.7z"/>
<path class="st1" d="M543.9,396.2c-28.1,0-43.6-5.6-51.8-10.7c-10.1-6.1-11.8-12.6-11.8-12.9v-0.1l1-12.3l0.4-1
	c2-4.4,2.2-9.4,0.7-14v-0.1V345l6.6-85.2l23.3-7.6l6.8-6.8L549,245l4.2,8.5l23.8,8.9l-11.7,69.5l-5.6,9.6L562,352v0.1l-7.3,43.8
	h-0.4C550.6,396.1,547.1,396.2,543.9,396.2z"/>
<path class="st1" d="M471.1,343l-11-6.5l-0.7-1c-2.8-4.1-7.5-6.6-12.5-6.7h-0.1l-15.2-8.9l6.3-18.4l23.8,7l16.6-41.2
	c2.7-6.8,10.4-10,17.2-7.3c2.6,1.1,4.8,2.9,6.3,5.3c1.3,2.2,2,4.7,2,7.2v27l-0.1,0.1L471.1,343z"/>
<path class="st5" d="M544.9,380.3c0.9-5,5.6-8.3,10.6-7.4c0.5,0.1,1.1,0.2,1.6,0.4l20.7-25.2l5,16.2l-20.4,21.4
	c-2.1,4.6-7.5,6.7-12.2,4.7C546.3,388.7,544.1,384.5,544.9,380.3L544.9,380.3z"/>
<path class="st1" d="M575.7,377.2L562,363.5l8.7-21.3l12.7-17.3c-13.5-6.6-23.6-22.1-30.9-35l-0.1-0.1l1.8-14.3
	c0.4-3.3,1.8-6.5,3.9-9.1c6.3-7.9,17.9-9.2,25.8-2.9c1.6,1.3,3,2.8,4.1,4.6l24.6,54.7l-0.3,0.4l-19.8,33.7l-5.4,3.5L575.7,377.2z"/>
<path class="st5" d="M555.6,216.3c-1.9,13.7-14.5,23.4-28.3,21.5c-13.7-1.9-23.3-14.5-21.5-28.2v-0.4c2.2-13.7,15.1-23,28.8-20.8
	C548,190.5,557.3,202.9,555.6,216.3L555.6,216.3z"/>
<path class="st1" d="M549.2,229.3c1.3-2.6,2.6-5.4,2.3-8.3s-3.2-5.7-6-4.8c-1.7,0.5-2.9,2.2-4.7,2.2c-2.4,0.1-3.8-2.6-4.5-4.9
	l-3-9.3c-5.9,4.6-13.6,6.3-20.9,4.7c-2.8-0.6-5.7-1.9-7.3-4.3s-1.6-6.1,0.6-7.9c1.1-0.9,2.6-1.2,3.7-2.2c1.7-1.5,1.9-4.1,0.4-5.8
	c-0.9-1-2.3-1.5-3.6-1.3l7.7-1l-2.3-4.1c1.8,1.2,3.9,1.6,6,1.1c2.1-0.4,4-1.2,6-1.8c10-2.6,20.6,1.9,25.8,10.8
	c3.9-1.3,8.1-0.1,10.7,3.1c2,2.6,2.6,6.1,2.7,9.4c0.1,6.5-1.3,13-4.2,18.9c-0.8,1.9-2,3.5-3.5,4.9s-3.6,2.1-5.6,1.8"/>
<path class="st4" d="M142.4,203.4c0.4,5.8,2.1,11.5,5,16.6c6.1,10.8,16.6,18.6,28,23.2c14.1,5.8,29.9,6,44.9,4.7
	c13.9-1.2,27.7-4,41.7-4.5c10.8-0.3,21.6-0.1,32.4,0.8c20.9,1.5,41.8,4.2,62.5,7.6c5.6,0.9,11.2,1.9,16.8,2.9c0.5,0,1.1,0.1,1.6,0.3
	c0.1,0,0.3,0,0.4,0.1c0.2,0.1-0.7-0.3-0.2,0.2c0.7,0.8,1.4,1.6,1.9,2.5l7.6,9.8c2.2,2.8,4.2,6.3,7.1,8.5c4.1,3.2,9.7,3.5,14.2,1
	c2.3-1.4,4.1-3.5,5.3-6c1.8-3.2,3.9-6.3,6.3-9c9.1-10.6,21.7-17.1,32.3-26.1c5.1-4.1,9.5-9.1,12.9-14.8c2.9-5.1,4.7-10.7,5.3-16.6
	c1.3-11.9-2.4-24-8.5-34.1c-6.7-10.8-16.2-19.6-27.6-25.3c-12.8-6.5-27-9.7-41.2-11.3c-15.1-1.7-30.3-1.7-45.5-1.5
	c-17,0.2-34,0.9-50.9,2.2c-17,1.3-33.9,3.2-50.7,5.6c-16.1,2.3-32.5,4.7-48.3,8.9c-14,3.6-27.9,9.3-38.3,19.6
	C148.1,177.7,141.6,190.2,142.4,203.4z"/>
<path class="st3" d="M220.4,207.2c-2.8-0.1-4.9-2.5-4.8-5.2c0-0.1,0-0.3,0-0.4l0.4-2.8c0.1-1.1-0.3-2.2-1.1-2.9l-2.1-1.9
	c-2.1-1.8-2.2-5-0.4-7c0.7-0.8,1.7-1.4,2.8-1.6l2.8-0.5c1.1-0.2,2-0.9,2.5-1.9l1.1-2.6c1.1-2.5,4.1-3.7,6.6-2.6
	c1,0.4,1.8,1.2,2.4,2.2l1.4,2.5c0.5,1,1.5,1.6,2.6,1.7l2.8,0.3c2.7,0.3,4.7,2.7,4.5,5.5c-0.1,1.1-0.6,2.1-1.3,2.9l-2,2.1
	c-0.8,0.8-1.1,1.9-0.8,3l0.6,2.8c0.6,2.7-1.1,5.4-3.8,5.9c-1.1,0.2-2.2,0.1-3.2-0.4l-2.6-1.2c-1-0.5-2.2-0.4-3.1,0.1l-2.5,1.4
	C222.3,207,221.4,207.2,220.4,207.2z"/>
<path class="st3" d="M260.5,206c-1.3-0.1-2.5-0.6-3.4-1.5c-1.1-1.2-1.6-2.8-1.4-4.3l0.3-2.6c0.1-1.1-0.3-2.2-1.1-3l-2-1.8
	c-1.2-1-1.8-2.5-1.8-4c0.1-2.3,1.8-4.3,4.1-4.7l2.8-0.5c1.1-0.2,2-1,2.5-2l1-2.3c0.8-1.8,2.5-3,4.4-3.2c1.9-0.1,3.7,0.9,4.6,2.6
	l1.4,2.5c0.5,1,1.5,1.7,2.7,1.8l2.6,0.3c1.5,0.1,2.9,0.9,3.8,2.2c1.3,1.9,1.1,4.5-0.5,6.2l-1.9,2c-0.8,0.8-1.1,2-0.9,3.1l0.6,2.6
	c0.4,1.5,0,3.1-0.9,4.3c-1.4,1.8-4,2.4-6.1,1.4l-2.5-1.2c-1-0.5-2.2-0.4-3.2,0.1l-2.4,1.4C262.4,205.8,261.5,206.1,260.5,206z"/>
<path class="st3" d="M300.7,205.9c-2.8-0.1-4.9-2.5-4.8-5.2c0-0.1,0-0.3,0-0.4l0.4-2.8c0.1-1.1-0.3-2.2-1.1-2.9l-2.1-1.9
	c-2.1-1.8-2.2-5-0.4-7c0.7-0.8,1.7-1.4,2.8-1.6l2.8-0.5c1.1-0.2,2-0.9,2.5-1.9l1.1-2.6c1.1-2.5,4.1-3.7,6.6-2.6
	c1,0.4,1.8,1.2,2.4,2.2l1.4,2.5c0.5,1,1.5,1.6,2.6,1.7l2.8,0.3c2.7,0.3,4.7,2.7,4.5,5.5c-0.1,1.1-0.6,2.1-1.3,2.9l-2,2.1
	c-0.8,0.8-1.1,1.9-0.8,3l0.6,2.8c0.6,2.7-1.1,5.4-3.8,5.9c-1.1,0.2-2.2,0.1-3.2-0.4l-2.6-1.2c-1-0.5-2.2-0.4-3.1,0.1l-2.5,1.4
	C302.6,205.7,301.7,205.9,300.7,205.9z"/>
<path class="st7" d="M339.8,204.8c-2.8-0.1-4.9-2.5-4.8-5.2c0-0.1,0-0.3,0-0.4l0.4-2.8c0.1-1.1-0.3-2.2-1.1-2.9l-2.1-1.9
	c-2.1-1.8-2.2-5-0.4-7c0.7-0.8,1.7-1.4,2.8-1.6l2.8-0.5c1.1-0.2,2-0.9,2.5-1.9l1.1-2.6c1.1-2.5,4.1-3.7,6.6-2.6
	c1,0.4,1.8,1.2,2.4,2.2l1.4,2.5c0.5,1,1.5,1.6,2.6,1.7l2.8,0.3c2.7,0.3,4.7,2.7,4.5,5.5c-0.1,1.1-0.6,2.1-1.3,2.9l-2,2.1
	c-0.8,0.8-1.1,1.9-0.8,3l0.6,2.8c0.6,2.7-1.1,5.4-3.8,5.9c-1.1,0.2-2.2,0.1-3.2-0.4l-2.6-1.2c-1-0.5-2.2-0.4-3.1,0.1l-2.5,1.4
	C341.7,204.6,340.8,204.9,339.8,204.8z"/>
<path class="st7" d="M378.9,203.8c-2.8-0.1-4.9-2.5-4.8-5.2c0-0.1,0-0.3,0-0.4l0.4-2.8c0.1-1.1-0.3-2.2-1.1-2.9l-2.1-1.9
	c-2.1-1.8-2.2-5-0.4-7c0.7-0.8,1.7-1.4,2.8-1.6l2.8-0.5c1.1-0.2,2-0.9,2.5-1.9l1.1-2.6c1.1-2.5,4.1-3.7,6.6-2.6
	c1,0.4,1.8,1.2,2.4,2.2l1.4,2.5c0.5,1,1.5,1.6,2.6,1.7l2.8,0.3c2.7,0.3,4.7,2.7,4.5,5.5c-0.1,1.1-0.6,2.1-1.3,2.9l-2,2.1
	c-0.8,0.8-1.1,1.9-0.8,3l0.6,2.8c0.6,2.7-1.1,5.4-3.8,5.9c-1.1,0.2-2.2,0.1-3.2-0.4l-2.6-1.2c-1-0.5-2.2-0.4-3.1,0.1l-2.5,1.4
	C380.8,203.6,379.9,203.8,378.9,203.8z"/>
<path class="st8" d="M717.3,601.7H299.9c-0.7,0-1.2-0.5-1.2-1.2s0.5-1.2,1.2-1.2l0,0h417.4c0.7,0,1.2,0.5,1.2,1.2
	S718,601.7,717.3,601.7L717.3,601.7z"/>
</svg>
