<?xml version="1.0" encoding="utf-8"?>
<!-- Generator: Adobe Illustrator 24.2.0, SVG Export Plug-In . SVG Version: 6.00 Build 0)  -->
<svg version="1.1" id="Layer_1" xmlns="http://www.w3.org/2000/svg" xmlns:xlink="http://www.w3.org/1999/xlink" x="0px" y="0px"
	 viewBox="0 0 917.1 601.2" style="enable-background:new 0 0 917.1 601.2;" xml:space="preserve">
<style type="text/css">
	.st0{fill:#FFFFFF;}
	.st1{fill:#658A90;}
	.st2{opacity:0.1;fill:#658A90;enable-background:new    ;}
	.st3{fill:#A0616A;}
	.st4{fill:#2F2E41;}
	.st5{fill:#0B3639;}
	.st6{fill:#E6E6E6;}
</style>
<path class="st0" d="M373.9,459.8c-14.8,16.6-24,37.4-26.3,59.6c-0.6,4.8-0.4,9.6,0.5,14.3c1,4.6,3.3,8.7,6.5,12.1
	c2.9,3.2,6.3,6.2,8.4,10.1c2.1,4,2.4,8.8,0.8,13.1c-1.9,5.3-5.5,9.6-9.2,13.7c-4.1,4.6-8.5,9.2-10.2,15.3c-0.2,0.7-1.3,0.4-1.1-0.4
	c3.1-10.5,13.3-16.5,18.1-26c2.3-4.4,3.2-9.6,1.1-14.2c-1.9-4.1-5.3-7.1-8.3-10.4c-3.2-3.3-5.5-7.3-6.8-11.6
	c-1.2-4.6-1.5-9.4-1.1-14.2c0.8-10.7,3.4-21.3,7.5-31.2c4.6-11.4,11.2-21.9,19.4-31C373.7,458.3,374.4,459.2,373.9,459.8z"/>
<path class="st0" d="M347.9,512.2c-7.6-1.8-12.7-8.9-12.1-16.6c0.1-0.8,1.2-0.7,1.2,0.1c-0.6,7.2,4.2,13.8,11.3,15.5
	C349.1,511.3,348.7,512.4,347.9,512.2z"/>
<path class="st0" d="M352.9,544.3c6.6-3.9,11.5-10.2,13.7-17.6c0.2-0.7,1.3-0.4,1.1,0.4c-2.3,7.7-7.4,14.2-14.3,18.3
	C352.8,545.8,352.3,544.7,352.9,544.3L352.9,544.3z"/>
<path class="st0" d="M359.5,479.7c2.7,1.3,5.9,1.1,8.5-0.4c0.7-0.4,1.2,0.7,0.5,1.1c-2.9,1.7-6.4,1.9-9.4,0.5
	c-0.3-0.1-0.5-0.4-0.4-0.7C358.9,479.8,359.2,479.6,359.5,479.7L359.5,479.7z"/>
<path class="st0" d="M398.8,533.7c-4.9-6-4.8-14.7,0.4-20.6c0.5-0.6,1.4,0.2,0.9,0.8c-4.8,5.4-4.9,13.6-0.3,19.1
	C400.3,533.6,399.3,534.3,398.8,533.7z"/>
<path class="st0" d="M383.5,562.4c7.7,0.8,15.3-1.3,21.5-5.8c0.6-0.5,1.3,0.5,0.7,1c-6.4,4.8-14.5,6.9-22.4,6
	C382.5,563.4,382.7,562.3,383.5,562.4L383.5,562.4z"/>
<path class="st0" d="M427.7,514.7c1.4,2.7,4.1,4.5,7.1,4.8c0.8,0.1,0.5,1.2-0.2,1.2c-3.3-0.4-6.3-2.3-7.8-5.3
	c-0.2-0.3-0.1-0.6,0.1-0.8C427.1,514.4,427.5,514.4,427.7,514.7L427.7,514.7z"/>
<path class="st1" d="M476.1,6.6c-3.9,0-7,3.1-7,7v296c0,3.9,3.1,7,7,7h434c3.9,0,7-3.1,7-7v-296c0-3.9-3.1-7-7-7L476.1,6.6z"/>
<path class="st0" d="M486.1,16.6c-3.9,0-7,3.1-7,7v276c0,3.9,3.1,7,7,7h414c3.9,0,7-3.1,7-7v-276c0-3.9-3.1-7-7-7
	C900.1,16.6,486.1,16.6,486.1,16.6z"/>
<path class="st2" d="M868.1,77c-9.5-3.7-19.8,5.6-22,15.6s0.6,20.3,1.3,30.5s-2,22-11.1,26.7c-10.5,5.3-22.7-1.6-34.4-2.7
	c-11.9-0.9-23.4,4.3-30.5,13.8c-9.7,13.2-9.2,32.5-20.6,44.2c-9.9,10.2-26.1,11.5-40,8.4s-26.6-10-40.3-14.1s-29.5-4.9-41.2,3.2
	c-12.2,8.5-17.6,25.1-31.1,31.5c-9.5,4.5-20.7,2.8-30.8,0.1s-20.4-6.5-30.8-5.6c-10.5,0.9-21.4,8.1-22.2,18.6l359.5-1
	c1.6-47.4,3.3-94.9,4.9-142.3C879,93.6,877.7,80.7,868.1,77z"/>
<path class="st3" d="M330.2,331.6c-2.4-6.2,0.8-13.2,7-15.6c0.7-0.3,1.3-0.4,2-0.6l6.3-42.4l16.6,14.9l-8.5,38
	c0.8,6.7-3.9,12.7-10.6,13.5C337.4,340.1,332.1,336.8,330.2,331.6L330.2,331.6z"/>
<path class="st3" d="M214.4,338c4.1-5.3,3.1-12.9-2.2-16.9c-0.6-0.4-1.2-0.8-1.8-1.1l6.3-42.4l-20.2,9.4l-2.9,38.8
	c-2.7,6.1,0.1,13.3,6.2,16C205,344,211,342.5,214.4,338L214.4,338z"/>
<polygon class="st3" points="303.1,581.9 321.9,581.9 330.8,509.6 303.1,509.6 "/>
<path class="st4" d="M298.3,575.8h36.9l0,0c13,0,23.5,10.5,23.5,23.5v0.8h-60.4V575.8z"/>
<polygon class="st3" points="203.1,581.9 221.9,581.9 230.8,509.6 203.1,509.6 "/>
<path class="st4" d="M198.3,575.8h36.9l0,0c13,0,23.5,10.5,23.5,23.5v0.8h-60.4L198.3,575.8z"/>
<circle class="st3" cx="291.3" cy="54.7" r="33.8"/>
<path class="st5" d="M211.2,298.8c0,0,0.5,151.5-1.9,153.9s-11,93-11,93h30c2,0,53-197.3,53-197.3s21.8,106.4,18.1,112.4
	s-0.8,85.3,1.2,91.9c0,0,25.2,8.1,27.6,2s6-88,6-88l7-136l0.2-35.5L211.2,298.8z"/>
<path class="st1" d="M350.2,124.7h13.5c2,0,3.8,1.4,4.3,3.4c2.1,9.2,7.4,35.3,6.5,55.8c-1.2,25.4-3.6,65.3-3.6,68.9
	c0,3.6-12.1,59.2-12.1,59.2s-8.3-13.7-17.5-11.1l1.7-49.4l2.4-20.6l-3.6-36.3L350.2,124.7z"/>
<path class="st1" d="M264.4,102.6c0,0-42.9,14.3-47.7,26.4s18.6,99.7,18.6,99.7s-9,40-21.1,78c-5.5,17.3,46.9,2.5,71.1-6
	c15-5.2,42.7,2.8,58.3-0.1c0,0,2.4-32.6,0-38.7c-2.4-6-8.5-2.4-4.8-10.9c3.6-8.5,2.4-9.7,1.2-13.3s2.4-8.5,2.4-13.3
	s-1.2-15.7-1.2-15.7s32.6-76.2,25.4-83.4s-44.2-21.2-44.2-21.2S323.3,104.6,264.4,102.6z"/>
<path class="st1" d="M224.5,124.7l-4.3,2.1c-3.4,1.7-5.8,4.9-6.5,8.6l-17,90.8l-3.6,85.8c0,0,20.6-6,26.6,0c0,0-6-18.1-2.4-24.2
	c3.6-6,3.6-14.5,3.6-14.5s-2.4,0,3.6-6s7.3-8.5,6-9.7c-1.2-1.2-2.4-12.1-2.4-13.3s12.1-82.2,12.1-82.2L224.5,124.7z"/>
<path class="st5" d="M512.5,246.1c-1.1,0-2-0.9-2-2s0.9-2,2-2c92.4,0,180.5-18.5,248.2-52.1c63.4-31.5,103.8-74.2,110.9-117.2
	c0.2-1.1,1.2-1.8,2.3-1.7c1.1,0.2,1.8,1.2,1.7,2.3l0,0l0,0c-3.7,22.3-15.5,44.2-35.3,65.1c-19.5,20.6-45.6,39.1-77.7,55
	C694.3,227.4,605.5,246.1,512.5,246.1z"/>
<polygon class="st6" points="892.1,246.5 510.1,246.5 510.1,57.8 512.1,57.8 512.1,244.5 892.1,244.5 "/>
<path class="st4" d="M259.4,66.1c-1.5-3.8-1.8-8-0.7-12c2.8,7.3,8.3,5.1,11.1,1.7c3.5-4.3,2.5-14.3,8-14.7s11.1,0.6,16.5,1.6
	c-0.9-1.5-1.8-3.1-2.7-4.6c4,0.2,7.9,0.5,11.9,0.7c-1.2-1.9-2.4-3.9-3.5-5.8c10.9,3.8,19.6,12.1,24,22.7c7.5-12.2,3.8-28.2-8.5-35.8
	c-1.6-1-3.4-1.8-5.2-2.5c1.6-2,3.1-4.1,4.7-6.1l-31.7-3.1c-0.2-3.1,1.2-6.1,3.7-8c-4.2-0.9-8.6,0.5-12.1,2.9s-6.3,5.7-9.1,8.9
	c-4.2,4.9-8.4,9.9-11.1,15.7C248.9,40.5,250.7,55.3,259.4,66.1z M259.8,51.2L259.8,51.2L259.8,51.2L259.8,51.2z"/>
</svg>
