<?xml version="1.0" encoding="utf-8"?>
<!-- Generator: Adobe Illustrator 24.2.0, SVG Export Plug-In . SVG Version: 6.00 Build 0)  -->
<svg version="1.1" id="Layer_1" xmlns="http://www.w3.org/2000/svg" xmlns:xlink="http://www.w3.org/1999/xlink" x="0px" y="0px"
	 viewBox="0 0 1099.1 826.3" style="enable-background:new 0 0 1099.1 826.3;" xml:space="preserve">
<style type="text/css">
	.st0{fill:#A0616A;}
	.st1{fill:#0B3639;}
	.st2{fill:#658A90;}
	.st3{fill:#D0CDE1;}
	.st4{opacity:0.15;enable-background:new    ;}
	.st5{fill:#3F3D56;}
	.st6{fill:#2F2E41;}
</style>
<path class="st0" d="M411.4,403c0,0-14.2,66,5.2,64.7c19.4-1.3,10.3-60.8,10.3-60.8L411.4,403z"/>
<polygon class="st0" points="489,717.4 498,765.3 518.7,762.7 512.3,710.9 "/>
<polygon class="st0" points="593.8,670.8 599,705.7 626.1,705.7 620.9,673.4 "/>
<path class="st1" d="M468.3,370.7c0,0-22,42.7-14.2,148.8c7.8,106.1,7.8,207,7.8,207l55.6-3.9L533,458.6l60.8,229l40.1-3.9
	l-10.3-223.8l-32.3-107.4L468.3,370.7z"/>
<path class="st1" d="M505.8,743.3c0,0,3.9-11.6-2.6-11.6H489c0,0-15.5,28.5-24.6,31s-37.5,27.2-10.3,29.8
	c27.2,2.6,68.6-11.6,68.6-16.8s-3.9-27.2-3.9-27.2L505.8,743.3z"/>
<path class="st1" d="M619.7,698c0,0-23.8-6.6-22.2-2.6s-3.6,15.6-3.6,15.6s-12.9,73.7,25.9,67.3s10.3-62.1,10.3-62.1l-5.7-22
	L619.7,698z"/>
<ellipse transform="matrix(0.2298 -0.9732 0.9732 0.2298 342.5775 537.6748)" class="st0" cx="511" cy="52.4" rx="38.8" ry="38.8"/>
<path class="st0" d="M485.1,73.1c0,0,6.5,37.5,2.6,45.3s31,23.3,31,23.3l18.1-44V73.1L485.1,73.1z"/>
<path class="st2" d="M505.8,117.1c0,0-11.8,1.7-16.9-6.9s-16.8,59.9-16.8,59.9s5.2,90.6-1.3,111.3c-6.5,20.7-5.2,28.5-2.6,32.3
	s10.3-1.3,3.9,9.1c-6.5,10.3-6.5,3.9-6.5,14.2s-2.6,47.9-2.6,47.9l139.7-10.3l-66-283.3C536.9,91.2,514.9,118.4,505.8,117.1z"/>
<path class="st3" d="M560.1,105.4c0,0,53,7.8,55.6,19.4s54.3,335.1,27.2,351.9s-115.1,29.8-119,12.9S499.3,130,536.9,91.2
	L560.1,105.4z"/>
<path class="st1" d="M634.9,446.2H624c0,0,3.3-39.3,0-42.9c0,0-30.4-3.3-61,30.1c0,0,5.3-36.5,44.8-38.4c12.7-0.6,20,4.4,24.1,11.6
	C640.6,421.7,634.9,446.2,634.9,446.2z"/>
<path class="st4" d="M634.9,446.2H624c0,0,3.3-39.3,0-42.9l8,3.2C640.6,421.7,634.9,446.2,634.9,446.2z"/>
<path class="st5" d="M571.1,420.6l-15,25.6h7C563,446.2,564.1,427.3,571.1,420.6z"/>
<path class="st4" d="M571.1,420.6l-15,25.6h7C563,446.2,564.1,427.3,571.1,420.6z"/>
<path class="st2" d="M699.5,554.6c0.4,8.7-3.5,17.1-10.4,22.4c0,0-138.4,32.9-153.8,30.1c-1.9-0.4-3.7-1-5.4-1.8
	c-12.2-5.8-19.9-21.6-19.9-21.6s-0.2-4.1-0.6-10.8c-0.7-12.9-1.7-35.4-2.3-56.6c-0.6-20.9-0.7-40.6,0.5-48.4
	c3.1-19.8,24.2-21.4,24.2-21.4l140.9-6.1c4.6,0,9.2,0.6,13.7,1.8c15.2,4.6,13,16.3,13,16.3S698.9,539.6,699.5,554.6z"/>
<path class="st1" d="M686.4,442.2c-8.6,2.7-29.4,8.6-36.8,6c-9.5-3.3-82.7-1.1-109.5,1.9c-26.7,3.1-17.3,75.5-17.3,75.5l-15.8-9.3
	c-0.6-20.9-0.7-40.6,0.5-48.4c3.1-19.8,24.2-21.4,24.2-21.4l140.9-6.1C677.4,440.3,682,441,686.4,442.2z"/>
<path class="st1" d="M585.3,494.2c0,0-13.4-75,11.3-85.3l3.2,0c0,0-7.8,10.3-4.7,29.2s1.4,62.1,1.4,62.1S586.9,505.9,585.3,494.2z"
	/>
<path class="st6" d="M595,411.4c0,0,14.8-23.7,41.8-10.6s29.5,42.9,29.5,42.9S647.7,389.1,595,411.4z"/>
<polygon class="st1" points="668.3,497.2 663.8,468.5 666.1,441.7 671.6,469.4 674.1,497.2 "/>
<polygon class="st6" points="618.1,493.9 633.7,490 649.6,491.9 649.6,498.9 635.1,503.3 618.1,501.7 "/>
<path class="st1" d="M527.3,594.7c0.4,3.6,1.2,7.2,2.5,10.6c-12.2-5.8-19.9-21.6-19.9-21.6s-0.2-4.1-0.6-10.8l10.2,4.2L527.3,594.7z
	"/>
<path class="st6" d="M534,610c-0.7-0.2-1.4-0.5-1.9-1.1C534.2,609.8,535.1,610.3,534,610z"/>
<path class="st3" d="M488.9,107.4l-50.4,49.8l18.1,161.7c0,0-36.2,191.5-15.5,191.5c20.7,0,18.1,2.6,22-11.6
	S488.9,107.4,488.9,107.4z"/>
<path class="st3" d="M451.5,153.3l-12.9,3.9c0,0-11.6,9.1-10.3,28.5s-1.3,75-1.3,75s-7.8,11.6-3.9,25.9l-18.1,124.2l40.1,6.5
	l14.2-64.7L451.5,153.3z"/>
<path class="st0" d="M611.9,359c0,0-15.5,81.5,0,76.3c15.5-5.2,34.9-62.1,22-71.2S611.9,359,611.9,359z"/>
<path class="st1" d="M472.1,57c0,0-4-5.9-2.4-12.3c0.9-3.6,1.3-7.4,1.1-11.1c0,0,3.2-10.4,6.4-16.2s1.7-8.2,11.7-10.1
	s5.9-14.9,32.5-0.8c1.8,2.6,5,3.8,8.1,3c5.5-1.1,7.5,6.6,7.5,6.6s3.7-2.1,5,0.9S553,15.2,553,35.8s-11.1,39-11.1,39
	s0.8-34.6-17.3-38.1s-37.6-13.7-42.4-0.6C479.7,43.4,476.3,50.4,472.1,57z"/>
<path class="st3" d="M593.8,117.1c0,0,29.8-5.2,36.2,33.6s23.3,115.1,23.3,115.1l-4.6,116.5l-43.2-14.3l1.3-89.3l-22-133.3
	L593.8,117.1z"/>
<polygon class="st4" points="582.8,169.5 599.6,279.5 595.7,372.6 613.8,282 "/>
</svg>
