<?xml version="1.0" encoding="utf-8"?>
<!-- Generator: Adobe Illustrator 24.2.0, SVG Export Plug-In . SVG Version: 6.00 Build 0)  -->
<svg version="1.1" id="Layer_1" xmlns="http://www.w3.org/2000/svg" xmlns:xlink="http://www.w3.org/1999/xlink" x="0px" y="0px"
	 viewBox="0 0 910.9 653.6" style="enable-background:new 0 0 910.9 653.6;" xml:space="preserve">
<style type="text/css">
	.st0{fill:#A0616A;}
	.st1{fill:#2F2E41;}
	.st2{fill:#0B3639;}
	.st3{fill:#658A90;}
</style>
<polygon class="st0" points="109.6,639.9 121.9,639.9 127.7,592.7 109.6,592.7 "/>
<path class="st1" d="M145.5,651.3H107l0,0v-14.9l0,0h23.6C138.8,636.4,145.5,643.1,145.5,651.3L145.5,651.3L145.5,651.3z"/>
<polygon class="st0" points="44.4,637.6 56.5,639.2 68.6,593.1 50.6,590.7 "/>
<path class="st1" d="M78.5,653.6l-38.2-5.1l0,0l2-14.8l0,0l23.4,3.1C73.8,638,79.6,645.5,78.5,653.6L78.5,653.6L78.5,653.6
	L78.5,653.6z"/>
<polygon class="st2" points="61.8,444.6 130.8,447.6 127.8,622.6 109.8,620.6 95.8,501.6 62.8,628.6 44.8,625.6 "/>
<path class="st3" d="M107.8,340.6l-24-4.9l-15,109.9c0,0,44,29,58-1L107.8,340.6z"/>
<circle class="st0" cx="97.3" cy="303.2" r="24.6"/>
<path class="st2" d="M83.8,334.6l-35,11c0,0,17,85-11,129c0,0,35,37,50-46C87.8,428.6,99.8,361.6,83.8,334.6z"/>
<path class="st2" d="M107.8,340.6l26,16c0,0,14,117,0,128S107.8,340.6,107.8,340.6z"/>
<path class="st0" d="M144.6,501.6c-4-3.8-4.2-10.2-0.4-14.2c0.4-0.4,0.9-0.8,1.3-1.2L135,452.1l17.8,5.2l7.3,31.6
	c3,4.7,1.6,11-3.1,14C153.1,505.4,148,504.8,144.6,501.6z"/>
<path class="st0" d="M54.8,491.7c-4.5-3.3-5.5-9.6-2.2-14.1c0.3-0.5,0.7-0.9,1.2-1.3l-14.9-32.5l18.3,2.9l11.3,30.4
	c3.6,4.3,3,10.7-1.3,14.2C63.7,494.4,58.5,494.5,54.8,491.7L54.8,491.7z"/>
<polygon class="st2" points="57.8,346.6 48.8,345.6 25.8,420.6 48.8,472.6 66.8,461.6 46.8,418.6 62.8,372.6 "/>
<polygon class="st2" points="128.8,355.6 133.8,356.6 157.8,473.6 141.8,478.6 122.8,409.6 "/>
<path class="st2" d="M80.5,313.3c0.7-4.9,3.9-9.1,8.4-11c4.7-1.9,10.1-1.1,15.2-0.7s10.8,0,14.4-3.5c3.4-3.2,4.1-8.6,2.5-13
	s-5.3-7.8-9.5-9.9c-4.3-2-8.8-3.2-13.5-3.6c-6.8-0.8-13.8-0.9-20.4,0.8s-4.9,5.4-8.8,11.1s-5.1,13.3-2.1,19.5c2,4.1,5.5,7.3,9,10.3"
	/>
<path class="st3" d="M629.8,584.3v-1.9c3.7,0,7.5-0.1,11.2-0.2l0.1,1.9C637.4,584.2,633.6,584.3,629.8,584.3z M618.5,584.1
	c-3.7-0.1-7.6-0.4-11.3-0.7l0.1-1.9c3.7,0.3,7.5,0.5,11.2,0.7V584.1z M652.5,583.4l-0.1-1.9c3.7-0.3,7.5-0.7,11.2-1.1l0.2,1.9
	C660,582.7,656.2,583.1,652.5,583.4L652.5,583.4z M596,582.3c-3.7-0.4-7.5-1-11.2-1.6l0.3-1.9c3.7,0.6,7.4,1.1,11.1,1.6L596,582.3z
	 M674.9,580.7l-0.3-1.9c3.7-0.6,7.4-1.3,11.1-2l0.4,1.8C682.4,579.4,678.6,580.1,674.9,580.7L674.9,580.7z M573.6,578.7
	c-3.7-0.7-7.4-1.6-11.1-2.5l0.4-1.8c3.6,0.9,7.3,1.7,11,2.5L573.6,578.7z M697.1,576.2l-0.4-1.8c3.6-0.9,7.3-1.9,10.9-2.9l0.5,1.8
	C704.5,574.3,700.8,575.3,697.1,576.2z M551.6,573.3c-3.6-1-7.3-2.2-10.8-3.4l0.6-1.8c3.5,1.2,7.2,2.3,10.7,3.3L551.6,573.3z
	 M718.9,569.9l-0.6-1.8c3.5-1.2,7.1-2.5,10.6-3.8l0.7,1.8C726,567.4,722.4,568.7,718.9,569.9z M530.1,566.2
	c-3.5-1.3-7.1-2.8-10.5-4.2l0.7-1.7c3.4,1.5,7,2.9,10.5,4.2L530.1,566.2z M740,561.8l-0.7-1.7c3.4-1.5,6.9-3,10.2-4.6l0.8,1.7
	C746.9,558.8,743.5,560.4,740,561.8z M509.2,557.3c-3.4-1.6-6.8-3.3-10.1-5.1l0.9-1.7c3.3,1.7,6.7,3.4,10.1,5L509.2,557.3z
	 M760.4,552.1l-0.9-1.7c3.3-1.7,6.6-3.6,9.8-5.4l0.9,1.6C767.1,548.6,763.7,550.4,760.4,552.1L760.4,552.1z M489.1,546.7
	c-3.3-1.9-6.5-3.9-9.7-5.9l1-1.6c3.1,2,6.4,4,9.6,5.8L489.1,546.7z M780,540.8l-1-1.6c3.1-2,6.3-4.1,9.4-6.2l1.1,1.5
	C786.3,536.7,783.1,538.8,780,540.8L780,540.8z M470,534.6c-3.1-2.1-6.2-4.4-9.2-6.6l1.1-1.5c3,2.2,6.1,4.5,9.1,6.6L470,534.6z
	 M798.6,528l-1.1-1.5c3-2.2,5.9-4.6,8.8-6.9l1.2,1.5C804.6,523.4,801.6,525.7,798.6,528L798.6,528z M451.9,521
	c-2.9-2.4-5.8-4.8-8.6-7.3l1.2-1.4c2.8,2.5,5.7,4.9,8.6,7.3L451.9,521z M816.1,513.6l-1.2-1.4c2.8-2.5,5.6-5,8.3-7.6l1.3,1.4
	C821.7,508.6,818.9,511.1,816.1,513.6L816.1,513.6z M434.9,506c-2.7-2.6-5.4-5.3-8-8l1.4-1.3c2.6,2.7,5.3,5.4,8,8L434.9,506z
	 M832.4,498l-1.4-1.3c2.6-2.7,5.2-5.5,7.6-8.3l1.4,1.2C837.6,492.5,835,495.3,832.4,498L832.4,498z M419.2,489.6
	c-2.5-2.8-5-5.7-7.3-8.6l1.5-1.2c2.4,2.9,4.8,5.8,7.3,8.6L419.2,489.6z M847.5,481l-1.5-1.2c2.4-2.9,4.7-5.9,6.9-8.9l1.5,1.1
	C852.2,475.1,849.8,478.1,847.5,481L847.5,481z M404.9,472.1c-2.3-3-4.5-6.1-6.6-9.2l1.5-1.1c2.1,3.1,4.3,6.1,6.6,9.1L404.9,472.1z
	 M861.1,462.9l-1.5-1.1c2.1-3.1,4.2-6.2,6.2-9.4l1.6,1C865.3,456.6,863.2,459.8,861.1,462.9L861.1,462.9z M392,453.5
	c-2-3.2-4-6.4-5.9-9.7l1.6-0.9c1.9,3.2,3.8,6.5,5.8,9.6L392,453.5z M873.2,443.8l-1.6-0.9c1.9-3.2,3.7-6.6,5.4-9.9l1.7,0.9
	C877,437.2,875.1,440.5,873.2,443.8L873.2,443.8z M380.7,434c-1.7-3.3-3.5-6.7-5.1-10.1l1.7-0.8c1.6,3.4,3.3,6.7,5,10L380.7,434z
	 M883.8,423.7l-1.7-0.8c1.6-3.4,3.2-6.8,4.6-10.3l1.7,0.7C887,416.8,885.4,420.3,883.8,423.7L883.8,423.7z M371,413.6
	c-1.5-3.5-2.9-7-4.2-10.5l1.8-0.7c1.3,3.5,2.7,7,4.2,10.4L371,413.6z M892.7,402.8l-1.8-0.7c1.3-3.5,2.6-7.1,3.8-10.6l1.8,0.6
	C895.3,395.7,894,399.3,892.7,402.8L892.7,402.8z M363,392.4c-1.2-3.6-2.3-7.2-3.4-10.8l1.8-0.5c1,3.6,2.2,7.2,3.4,10.7L363,392.4z
	 M899.9,381.3l-1.8-0.5c1-3.6,2-7.2,2.9-10.9l1.8,0.4C901.9,374,900.9,377.7,899.9,381.3L899.9,381.3z M356.7,370.7
	c-0.9-3.7-1.7-7.4-2.5-11l1.8-0.4c0.7,3.7,1.6,7.3,2.5,11L356.7,370.7z M905.3,359.3l-1.8-0.4c0.7-3.7,1.4-7.4,2-11.1l1.9,0.3
	C906.7,351.9,906,355.7,905.3,359.3L905.3,359.3z M352.1,348.5c-0.6-3.7-1.1-7.5-1.6-11.2l1.9-0.2c0.5,3.7,1,7.5,1.6,11.1
	L352.1,348.5z M908.9,337l-1.9-0.2c0.4-3.7,0.8-7.5,1.1-11.2l1.9,0.1C909.7,329.5,909.3,333.2,908.9,337L908.9,337z M349.4,326
	c-0.3-3.7-0.5-7.5-0.7-11.3l1.9-0.1c0.2,3.7,0.4,7.5,0.7,11.2L349.4,326z M910.7,314.4l-1.9-0.1c0.1-3.7,0.2-7.5,0.2-11.2v-0.6h1.9
	v0.6C910.9,306.9,910.8,310.7,910.7,314.4L910.7,314.4z M350.4,303.4h-1.9v-0.3c0-3.7,0.1-7.4,0.2-11l1.9,0.1
	c-0.1,3.6-0.2,7.3-0.2,10.9V303.4z M908.8,291.2c-0.2-3.7-0.4-7.5-0.7-11.2l1.9-0.2c0.3,3.8,0.5,7.6,0.7,11.3L908.8,291.2z
	 M351.2,280.9l-1.9-0.1c0.3-3.8,0.7-7.5,1.1-11.3l1.9,0.2C351.9,273.4,351.5,277.2,351.2,280.9z M906.9,268.8
	c-0.5-3.7-1-7.4-1.6-11.1l1.9-0.3c0.6,3.7,1.1,7.5,1.6,11.2L906.9,268.8z M353.9,258.6l-1.9-0.3c0.6-3.7,1.3-7.5,2-11.1l1.8,0.4
	C355.1,251.2,354.5,254.9,353.9,258.6z M903.3,246.6c-0.8-3.7-1.6-7.4-2.5-11l1.8-0.5c0.9,3.6,1.7,7.4,2.5,11L903.3,246.6z
	 M358.3,236.6l-1.8-0.4c0.9-3.6,1.9-7.3,2.9-10.9l1.8,0.5C360.2,229.3,359.2,232.9,358.3,236.6L358.3,236.6z M897.9,224.8
	c-1-3.6-2.2-7.2-3.4-10.7l1.8-0.6c1.2,3.6,2.3,7.2,3.4,10.8L897.9,224.8z M364.5,215l-1.8-0.6c1.2-3.6,2.5-7.2,3.8-10.7l1.8,0.7
	C367,207.8,365.7,211.4,364.5,215z M890.7,203.5c-1.3-3.5-2.7-7-4.2-10.4l1.7-0.7c1.5,3.4,2.9,7,4.2,10.5L890.7,203.5z M372.5,193.9
	l-1.7-0.7c1.5-3.5,3-6.9,4.7-10.3l1.7,0.8C375.5,187,374,190.4,372.5,193.9L372.5,193.9z M881.9,182.9c-1.6-3.4-3.3-6.7-5-10
	l1.7-0.9c1.8,3.3,3.5,6.7,5.1,10.1L881.9,182.9z M382.2,173.5l-1.7-0.9c1.7-3.3,3.6-6.7,5.5-9.9l1.6,0.9
	C385.7,166.9,383.9,170.2,382.2,173.5L382.2,173.5z M871.4,163c-1.9-3.2-3.8-6.5-5.8-9.6l1.6-1c2,3.2,4,6.4,5.9,9.7L871.4,163z
	 M393.4,154l-1.6-1c2-3.2,4.1-6.4,6.3-9.5l1.5,1.1C397.5,147.7,395.4,150.8,393.4,154L393.4,154z M859.4,144.1
	c-2.1-3.1-4.3-6.1-6.6-9.1l1.5-1.1c2.3,3,4.5,6.1,6.6,9.2L859.4,144.1z M406.2,135.5l-1.5-1.1c2.3-3,4.6-6,7-8.9l1.5,1.2
	C410.8,129.5,408.5,132.5,406.2,135.5L406.2,135.5z M845.8,126.1c-2.4-2.9-4.8-5.8-7.3-8.5l1.4-1.2c2.5,2.8,5,5.7,7.3,8.6
	L845.8,126.1z M420.4,118l-1.4-1.2c2.5-2.8,5.1-5.6,7.7-8.3l1.4,1.3C425.5,112.5,422.9,115.2,420.4,118L420.4,118z M830.9,109.3
	c-2.6-2.7-5.3-5.4-8-7.9l1.3-1.4c2.7,2.6,5.4,5.3,8,8L830.9,109.3z M436,101.8l-1.3-1.4c2.7-2.6,5.5-5.2,8.3-7.7l1.2,1.4
	C441.5,96.6,438.7,99.2,436,101.8L436,101.8z M814.6,93.8c-2.8-2.5-5.7-4.9-8.6-7.3l1.2-1.5c2.9,2.4,5.8,4.8,8.6,7.3L814.6,93.8z
	 M452.8,86.9l-1.2-1.4c2.9-2.4,5.9-4.7,8.9-7l1.1,1.5C458.7,82.2,455.7,84.5,452.8,86.9L452.8,86.9z M797.2,79.5
	c-3-2.2-6.1-4.5-9.1-6.6l1.1-1.5c3.1,2.1,6.2,4.4,9.2,6.6L797.2,79.5z M470.8,73.3l-1.1-1.5c3.1-2.1,6.3-4.2,9.4-6.3l1,1.6
	C477,69.1,473.8,71.2,470.8,73.3L470.8,73.3z M778.7,66.8c-3.2-2-6.4-4-9.6-5.8l0.9-1.6c3.3,1.9,6.5,3.9,9.7,5.9L778.7,66.8z
	 M489.7,61.3l-0.9-1.6c3.2-1.9,6.6-3.7,9.9-5.5l0.9,1.7C496.3,57.6,493,59.4,489.7,61.3L489.7,61.3z M759.1,55.5
	c-3.3-1.7-6.7-3.4-10.1-5l0.8-1.7c3.4,1.6,6.8,3.3,10.2,5.1L759.1,55.5z M509.6,50.8l-0.8-1.7c3.4-1.6,6.8-3.2,10.3-4.7l0.7,1.7
	C516.4,47.7,512.9,49.2,509.6,50.8L509.6,50.8z M738.8,45.9c-3.4-1.5-7-2.9-10.5-4.2l0.7-1.8c3.5,1.3,7.1,2.8,10.5,4.2L738.8,45.9z
	 M530.2,42l-0.7-1.8c3.5-1.3,7.1-2.6,10.7-3.8l0.6,1.8C537.3,39.4,533.7,40.7,530.2,42L530.2,42z M717.7,37.9
	c-3.5-1.2-7.2-2.3-10.7-3.3l0.5-1.8c3.6,1,7.2,2.2,10.8,3.3L717.7,37.9z M551.5,34.8L551,33c3.6-1,7.3-2,10.9-2.9l0.5,1.8
	C558.8,32.8,555.1,33.8,551.5,34.8L551.5,34.8z M696.1,31.7c-3.6-0.9-7.3-1.7-11-2.4l0.4-1.8c3.7,0.7,7.4,1.6,11.1,2.5L696.1,31.7z
	 M573.4,29.4l-0.4-1.8c3.7-0.8,7.4-1.4,11.1-2l0.3,1.9C580.7,28,577,28.7,573.4,29.4z M674,27.3c-3.7-0.6-7.4-1.1-11.1-1.5l0.2-1.9
	c3.7,0.4,7.5,1,11.2,1.6L674,27.3z M595.6,25.8l-0.2-1.9c3.7-0.5,7.5-0.8,11.3-1.1l0.2,1.9C603,25,599.3,25.4,595.6,25.8L595.6,25.8
	z M651.7,24.6c-3.7-0.3-7.5-0.5-11.2-0.6l0.1-1.9c3.8,0.1,7.6,0.4,11.3,0.7L651.7,24.6z M618,24l-0.1-1.9c3.7-0.2,7.6-0.2,11.3-0.2
	v1.9C625.5,23.8,621.7,23.9,618,24L618,24z"/>
<circle class="st2" cx="530.4" cy="297.7" r="180.9"/>
<ellipse class="st3" cx="466.2" cy="297.7" rx="96.1" ry="132.2"/>
<ellipse class="st2" cx="434.3" cy="325.7" rx="26.8" ry="42.2"/>
<circle class="st2" cx="885.8" cy="196.7" r="17.8"/>
<circle class="st2" cx="680.1" cy="26.2" r="26.2"/>
<circle class="st2" cx="662.7" cy="581.4" r="17.8"/>
</svg>
