<?xml version="1.0" encoding="utf-8"?>
<!-- Generator: Adobe Illustrator 24.2.0, SVG Export Plug-In . SVG Version: 6.00 Build 0)  -->
<svg version="1.1" id="Layer_1" xmlns="http://www.w3.org/2000/svg" xmlns:xlink="http://www.w3.org/1999/xlink" x="0px" y="0px"
	 viewBox="0 0 715.3 604.2" style="enable-background:new 0 0 715.3 604.2;" xml:space="preserve">
<style type="text/css">
	.st0{fill:#FFFFFF;}
	.st1{fill:#CCCCCC;}
	.st2{fill:#FFB8B8;}
	.st3{fill:#0B3639;}
	.st4{fill:#A0616A;}
	.st5{fill:#E6E6E6;}
	.st6{fill:#3F3D56;}
</style>
<path class="st0" d="M547.8,180.7l-9.1-15.8c-0.6-1-1.8-1.3-2.7-0.7c-0.3,0.2-0.6,0.4-0.7,0.7l-6.7,11.6l-8.7-15.1
	c-0.6-1-1.8-1.3-2.7-0.7c-0.3,0.2-0.6,0.4-0.7,0.7l-9.1,15.8L496.5,196h21l-2.1,3.6h43.5L547.8,180.7z"/>
<rect x="554.5" y="316.4" class="st1" width="21.6" height="9.9"/>
<rect x="532.4" y="269.9" transform="matrix(0.4437 -0.8962 0.8962 0.4437 47.3566 637.7531)" class="st1" width="9.9" height="21.6"/>
<rect x="513.3" y="308.6" transform="matrix(0.4437 -0.8962 0.8962 0.4437 2.0997 642.1345)" class="st1" width="9.9" height="21.6"/>
<path class="st2" d="M292.8,380.6c0.9,0.5,1.8,1.1,2.6,1.8l89-27.7l5-22.1l34.3,3.2l-5.1,40c-0.8,6.6-6,11.9-12.6,13l-104.8,16.6
	c-4.2,10.1-15.7,14.9-25.8,10.7c-10.1-4.2-14.9-15.7-10.7-25.8c4.2-10.1,15.7-14.9,25.8-10.7C291.4,379.8,292.1,380.2,292.8,380.6z"
	/>
<path class="st3" d="M439.6,349l-0.6-10.1l0,0l-0.2-2.8l-1.7-29.7c1.1-12.9-8.5-24.2-21.3-25.4c-1.8-0.2-3.6-0.1-5.3,0.1
	c-10.8,1.5-19.2,10.3-20.2,21.2l-3.6,15l-6.3,26.3c-0.9,3.8,0.9,7.7,4.3,9.5c1,0.5,2,0.8,3.1,0.9l10.5,0.9l10.1,0.9l11.7,1l0.8,0.1
	l2.2,0.2l7.2,0.6l0,0c2.4,0.2,4.9-0.7,6.6-2.4c0.6-0.6,1.2-1.3,1.6-2.1C439.4,352.1,439.7,350.6,439.6,349L439.6,349z"/>
<path class="st3" d="M537.3,226.8c0,34.2-31.6,29-70.7,29s-70.7,5.2-70.7-29s15.5-94.9,70.7-94.9
	C523.7,131.9,537.3,192.6,537.3,226.8z"/>
<ellipse transform="matrix(0.7071 -0.7071 0.7071 0.7071 -10.6168 390.756)" class="st4" cx="466.4" cy="208.2" rx="47.6" ry="47.6"/>
<path class="st3" d="M533.3,275.8c-0.9-0.9-1.9-1.7-2.9-2.5c-6.5-4.9-14.6-7-22.6-6l-87.6,11.1c-16.7,2.1-28.7,17-27.1,33.8
	c0.3,2.8,0.5,5.8,0.8,8.8c0.4,3.9,0.9,7.9,1.4,12.1c0.9,7,1.9,14.5,3.2,22c1.1,6.5,2.3,13.1,3.8,19.6c0.4,1.9,0.8,3.8,1.3,5.6l0,0
	c0,0.2,0.1,0.5,0.2,0.7l0,0c0.6,2.6,1.3,5.2,2,7.7c0.3,0.9,0.5,1.9,0.8,2.8c0.7,2.5,1.4,5,2.2,7.4c5.7,17.9,13.3,33.2,23.2,41.3
	c0.1,0.1,0.3,0.2,0.4,0.3l0.4,0.3l0.6-0.2l2.5-0.7l2.1-0.6l27.4-8.2l6.8-2l21.9-6.6l0,0l20-6l2.4-0.7l17.2-5.2l0.5-6.4l0.7-8.5
	l0.4-5.1l3.5-40.4l2-23.6L543,301C543.6,291.6,540.2,282.3,533.3,275.8z"/>
<path class="st3" d="M582.3,471.2c-0.2-0.7-0.5-1.3-0.7-2c-10.3-30-25.4-52.7-47.8-65l0,0l-0.4-0.2l-19.4,6.7l-2.4,0.8l-2.5,0.9l0,0
	l-18.2,6.3l0,0l-14.3,4.9l0,0l-13.2,4.6l0,0l-3.1,1.1l-23.1,8l-2.7,0.9l-2.4,0.8l-0.4,0.1l-0.1,1.1l-1.6,28.9l-0.1,2l-2.1,36.1
	l-68.4,96.9h46.8c15.7,0,31.3-1.2,46.8-3.6l43.9-47.3c1.1-1.2,3-1.2,4.1-0.1c0.4,0.4,0.7,0.9,0.8,1.5l6.4,32
	c31.8-11.2,61.5-27.6,88-48.4C593.4,513.4,588.9,490.8,582.3,471.2z"/>
<path class="st3" d="M411.4,203.6L411.4,203.6h18.8l8.3-23.2l1.7,23.2h9L454,190l1,13.6h66.8l0,0c0-27.8-22.5-50.4-50.4-50.4l0,0
	h-9.7C434,153.2,411.4,175.7,411.4,203.6L411.4,203.6z"/>
<path class="st4" d="M295.7,455.6c-11.6,4.9-25-0.6-29.8-12.2c-0.5-1.2-0.9-2.5-1.2-3.8l-80.5-9.1l27-32.3l72.3,13.6
	c12.5-2,24.2,6.6,26.2,19.1C311.2,441.3,305.5,451.5,295.7,455.6L295.7,455.6z"/>
<path class="st1" d="M252.3,395.8l-34-6.1l-2.5-0.4c-7.7-1.4-12.9-8.8-11.5-16.5c0.1-0.5,0.2-1.1,0.4-1.6l16.7-55.5l0.5-1.6
	c4.3-14.5-2-30.1-15.2-37.5c-15.6-8.7-35.2-3-43.9,12.5c-1.4,2.5-2.4,5.2-3.1,8L138.4,384l-0.8,3.2c-5.7,23.3,8.5,46.8,31.8,52.5
	c2.1,0.5,4.2,0.9,6.3,1.1c0.1,0,0.1,0,0.2,0l12.8,1.1l16.5,1.5l20.8,1.8l19.4,1.7c5.3,0.5,10-3.2,10.9-8.4c0-0.1,0-0.3,0.1-0.4
	l4.1-30.8V407C261.4,401.7,257.7,396.7,252.3,395.8z"/>
<path class="st3" d="M199.9,162.7c-13.6,26.7-24.3,54.2-54.2,54.2s-54.2-24.3-54.2-54.2s24.3-53.8,54.2-54.2
	C176.1,108.1,225.2,113,199.9,162.7z"/>
<path class="st3" d="M234,511.9l-1.2-12.3h-0.9l-161.7,7.8l0.4,12.4l0.7,21.3c25,19.1,52.8,34.2,82.4,44.8l1.1-8.1
	c0.2-1.6,1.7-2.7,3.3-2.5c1.2,0.2,2.1,1,2.4,2.1l3.2,11.9c25.8,8.3,52.5,13.2,79.6,14.4L234,511.9z"/>
<circle class="st4" cx="148.4" cy="170.4" r="47.6"/>
<path class="st3" d="M243.3,500.4l-9.4-29.3l-0.2-0.5l-0.5-1.5l-2.7-8.3c-0.9-2.7-1.7-5.4-2.5-8.2c-0.7-2.5-1.4-4.9-2-7.4
	c-0.9-3.4-1.7-6.9-2.4-10.4c-2.4-11.6-4.1-23.5-4.9-35.3c-0.2-3.3-0.4-6.6-0.5-9.9c-0.6-20.2,1.2-40.5,5.4-60.3
	c7.5-35.2-8.9-71.1-40.3-88.6c-10.1-5.6-21.2-8.9-32.6-9.8c-0.8-0.1-1.6-0.1-2.4-0.2c-24.5-1.5-48.4,8.1-64.9,26.3
	c-4.4,4.8-8.2,10-11.3,15.7c-8.7,15.7-12,33.9-9.3,51.7L74,400l-2.6,31.8l-3,37.4l-0.2,2L65,511.1c-0.3,3.8,1.9,7.4,5.5,8.8
	c1,0.4,2.1,0.6,3.2,0.6c0.2,0,0.3,0,0.5,0l159.8-8.6l1.5-0.1c4.8-0.2,8.5-4.3,8.2-9.1C243.6,501.9,243.5,501.2,243.3,500.4z"/>
<path class="st3" d="M198.8,143.5c-10.9,7.5-23.8,11.5-37,11.4c4.7,3.3,10.1,5.5,15.7,6.5c-17.6,3.8-35.7,3.9-53.3,0.3
	c-3.9-0.6-7.7-1.9-11.2-3.8c-3.4-2.1-6.2-5.3-6.9-9.2c-1.2-6.7,4-12.7,9.4-16.8c16.8-12.5,38.3-16.8,58.5-11.7
	c6.5,1.7,13.1,4.5,17.3,9.8s5.5,13.3,1.5,18.8L198.8,143.5z"/>
<path class="st4" d="M201.3,445.7c-11.5,5.1-25,0-30.1-11.5c-0.5-1.2-1-2.5-1.3-3.8L89.2,423l26.3-32.9l72.6,12
	c12.5-2.2,24.4,6.1,26.6,18.5C216.5,431.1,211,441.4,201.3,445.7L201.3,445.7z"/>
<path class="st3" d="M156.6,386.8l-18.2-2.8l-18.4-2.9c-7.8-1.2-13.1-8.5-11.8-16.2c0.1-0.5,0.2-1.1,0.3-1.6l16-57.5
	c4-14.6-2.7-30-16-37.2c-8.9-4.7-19.5-5-28.6-0.8s-15.8,12.5-18,22.3l-20.1,90.6c-5.2,23.4,9.6,46.6,33,51.8
	c2.1,0.5,4.3,0.8,6.5,0.9l69.6,4.7c5.3,0.4,10-3.4,10.8-8.6c0-0.1,0-0.3,0.1-0.4l3.5-30.8V398C165.8,392.6,162,387.7,156.6,386.8z"
	/>
<path class="st5" d="M465.1,339l-4.2,2.3l-51.4,28.1l-4.2,2.3c-4.2,2.3-5.8,7.6-3.5,11.8l38.3,70.2c2.3,4.2,7.6,5.8,11.8,3.5l0,0
	l59.7-32.6l0,0c4.2-2.3,5.8-7.6,3.5-11.8l-38.3-70.2C474.6,338.3,469.3,336.7,465.1,339z"/>
<path class="st0" d="M466.3,341.2l-4.9,2.7l-49.9,27.2l-4.9,2.7c-3,1.6-4.1,5.4-2.5,8.4l38.3,70.2c1.6,3,5.4,4.1,8.4,2.5l0,0
	l59.7-32.6l0,0c3-1.6,4.1-5.4,2.5-8.4l-38.3-70.2C473.1,340.7,469.3,339.6,466.3,341.2z"/>
<path class="st5" d="M467.7,361c-0.4-0.7-1.3-1-2-0.6l-2,1.1l-20.3,11.1c-0.7,0.4-1,1.3-0.6,2s1.3,1,2,0.6l22.3-12.2
	C467.8,362.6,468.1,361.7,467.7,361z"/>
<path class="st5" d="M475.3,362.5c-0.4-0.7-1.2-1-1.9-0.6l0,0l-27.5,15c-0.7,0.4-1,1.3-0.6,2s1.3,1,2,0.6l0,0l1.3-0.7l8-4.4l0,0
	l18.2-10C475.4,364.1,475.7,363.2,475.3,362.5L475.3,362.5z"/>
<path class="st5" d="M445.4,386.4l-8.7-16c-0.2-0.3-0.6-0.5-0.9-0.3l-4.2,2.3l-2.2,1.2l-11.8,6.4l-2.3,1.3c-0.3,0.2-0.5,0.6-0.3,1
	l0.6,1l8.2,15c0.2,0.3,0.6,0.5,0.9,0.3l14.1-7.7l2.2-1.2l4.2-2.3C445.4,387.2,445.6,386.8,445.4,386.4L445.4,386.4z"/>
<path class="st5" d="M478.7,381.4c-0.4-0.7-1.3-1-2-0.6l-30.2,16.5c-0.5,0.3-0.8,0.9-0.7,1.5c0,0.2,0.1,0.3,0.2,0.4s0.2,0.3,0.3,0.4
	l0,0c0.5,0.4,1.1,0.5,1.7,0.2l30.2-16.5C478.9,383,479.1,382.1,478.7,381.4L478.7,381.4z"/>
<path class="st5" d="M486.3,382.8c-0.4-0.7-1.3-1-2-0.6l0,0l-35.5,19.3c-0.5,0.3-0.8,0.9-0.7,1.5l0,0c0,0.2,0.1,0.3,0.1,0.4
	c0.1,0.1,0.2,0.3,0.3,0.4c0.5,0.4,1.1,0.5,1.7,0.2l35.5-19.3C486.5,384.4,486.7,383.5,486.3,382.8z"/>
<circle class="st5" cx="436.4" cy="407.2" r="6.2"/>
<path class="st1" d="M483.1,312l-4.2,2.3l-51.4,28.1l-4.2,2.3c-4.2,2.3-5.8,7.6-3.5,11.8l38.3,70.2c2.3,4.2,7.6,5.8,11.8,3.5l0,0
	l59.7-32.6l0,0c4.2-2.3,5.8-7.6,3.5-11.8l-38.3-70.2C492.6,311.3,487.3,309.7,483.1,312z"/>
<path class="st0" d="M484.3,314.2l-4.9,2.7l-49.9,27.2l-4.9,2.7c-3,1.6-4.1,5.4-2.5,8.4l38.3,70.2c1.6,3,5.4,4.1,8.4,2.5l0,0
	l59.7-32.6l0,0c3-1.6,4.1-5.4,2.5-8.4l-38.3-70.2C491.1,313.7,487.3,312.6,484.3,314.2z"/>
<path class="st1" d="M485.7,334c-0.4-0.7-1.3-1-2-0.6l-10.3,5.6l-2.9,1.6l-9.2,5c-0.7,0.4-1,1.3-0.6,2s1.3,1,2,0.6l10.8-5.9l2.3-1.2
	l9.2-5C485.8,335.6,486.1,334.7,485.7,334z"/>
<path class="st1" d="M493.3,335.5c-0.4-0.7-1.2-1-1.9-0.6l0,0l-14.3,7.8l-2.2,1.2l-11,6c-0.7,0.4-1,1.3-0.6,2s1.3,1,2,0.6l0,0l11-6
	l2.2-1.2l14.3-7.8C493.4,337.1,493.7,336.2,493.3,335.5L493.3,335.5z"/>
<path class="st3" d="M463.4,359.4l-7-12.8l-1.2-2.2l-0.6-1c-0.2-0.3-0.6-0.5-0.9-0.3l-14.1,7.7l-6.4,3.5c-0.3,0.2-0.5,0.6-0.3,1
	l0.6,1l0.6,1.1l0.6,1l0,0l7,12.8c0.2,0.3,0.6,0.5,0.9,0.3l20.5-11.2C463.4,360.2,463.6,359.8,463.4,359.4L463.4,359.4z"/>
<path class="st1" d="M496.7,354.4c-0.4-0.7-1.3-1-2-0.6l-9,4.9l-2.2,1.2l-8.7,4.8l-10.3,5.6c-0.7,0.4-1,1.3-0.6,2s1.3,1,2,0.6
	l19-10.4l2.2-1.2l9-4.9C496.9,356,497.1,355.1,496.7,354.4L496.7,354.4z"/>
<path class="st1" d="M504.3,355.8c-0.4-0.7-1.3-1-2-0.6l0,0L488,363l-2.2,1.2l-19,10.4c-0.7,0.4-1,1.3-0.6,2s1.3,1,2,0.6l0,0
	l19-10.4l2.2-1.2l14.3-7.8C504.5,357.4,504.7,356.5,504.3,355.8z"/>
<circle class="st1" cx="454.4" cy="380.2" r="6.2"/>
<path class="st4" d="M458.6,414.8c1,0.1,2.1,0.3,3.1,0.5l69.8-61.9l-4.5-22.2l32.6-11.2l11.8,38.5c2,6.4-0.5,13.3-6.1,17l-88.7,58.2
	c0.4,10.9-8.2,20-19.1,20.4s-20-8.2-20.4-19.1s8.2-20,19.1-20.4C456.9,414.7,457.8,414.7,458.6,414.8L458.6,414.8z"/>
<path class="st3" d="M579.4,325.6l-19.8-37.7c-4.2-11.9-17.2-18.4-29.2-14.5c-0.2,0.1-0.4,0.1-0.6,0.2
	c-12.2,4.3-18.7,17.7-14.5,29.9l7.9,41.7c0.5,2.4,1.9,4.5,4.1,5.7c1.2,0.7,2.4,1.1,3.8,1.1c1.1,0.1,2.2-0.1,3.2-0.5l4.2-1.5
	l27.2-9.5l8.9-3.1c4.4-1.5,6.7-6.4,5.2-10.8C579.8,326.3,579.6,326,579.4,325.6L579.4,325.6z"/>
<path class="st6" d="M654,471.2H1c-0.6,0-1-0.4-1-1s0.4-1,1-1h653c0.6,0,1,0.4,1,1S654.6,471.2,654,471.2z"/>
<path class="st6" d="M113.5,452.7v0.5c0,6.9,4.1,13.2,10.4,16c2.2,1,4.6,1.5,7.1,1.5h161.5v-18H113.5z"/>
<path class="st3" d="M405.3,334c-2.6-5.3-6.5-9.8-11.4-13c-2.2-1.5-4.6-2.7-7.1-3.5c-3.4-1.2-7.1-1.8-10.7-1.8H221
	c-17.9,0-32.5,14.6-32.5,32.5v90c0,1.3,0.1,2.5,0.2,3.8c0.2,1.9,0.6,3.7,1.1,5.5s1.2,3.5,2.1,5.2c5.5,11,16.8,18,29.1,18h155
	c17.9,0,32.5-14.5,32.5-32.5l0,0v-90C408.5,343.3,407.4,338.4,405.3,334z"/>
<circle class="st0" cx="307" cy="393.2" r="8"/>
</svg>
