<?xml version="1.0" encoding="utf-8"?>
<!-- Generator: Adobe Illustrator 24.2.0, SVG Export Plug-In . SVG Version: 6.00 Build 0)  -->
<svg version="1.1" id="Layer_1" xmlns="http://www.w3.org/2000/svg" xmlns:xlink="http://www.w3.org/1999/xlink" x="0px" y="0px"
	 viewBox="0 0 819.1 584" style="enable-background:new 0 0 819.1 584;" xml:space="preserve">
<style type="text/css">
	.st0{fill:#0B3639;}
	.st1{fill:#658A90;}
	.st2{opacity:0.1;fill:#0B3639;enable-background:new    ;}
	.st3{fill:#FFFFFF;}
	.st4{fill:#FFB8B8;}
	.st5{fill:#2F2E41;}
</style>
<path class="st0" d="M192.6,405.9c-6.3,0-12.6-0.8-18.6-2.4l-1.2-0.3l-1.1-0.6c-40.2-20.2-74.2-46.8-100.9-79.2
	c-22.1-27-39.4-57.6-50.9-90.5C5.9,193.6-0.8,152,0.1,110.3c0-0.9,0-1.6,0-2c0-20.3,11.3-38.1,28.7-45.4C42.1,57.3,163.2,7.6,172,4
	c16.5-8.3,34.1-1.4,36.9-0.2c6.3,2.6,118.3,48.4,142.5,59.9c24.9,11.9,31.6,33.2,31.6,43.9c0,48.6-8.4,94-25,135
	c-13.4,33.2-32.4,63.8-56.2,90.5c-45.8,51.6-91.7,69.9-92.1,70C204.1,405.1,198.4,406,192.6,405.9z M181.8,379.2
	c4,0.9,13.1,2.2,19.1,0.1c7.6-2.8,46-22.7,81.8-63c49.6-55.8,74.7-125.9,74.7-208.4c-0.1-1.7-1.3-13.6-17.1-21.1
	c-23.7-11.3-140.1-58.9-141.3-59.4l-0.3-0.1c-2.4-1-10.2-3.2-15.6-0.4l-1.1,0.5c-1.3,0.5-129.9,53.3-143.6,59.1
	c-9.6,4-13,13.9-13,21.8c0,0.6,0,1.4,0,2.5C24.4,167.2,37.5,306.1,181.8,379.2z"/>
<path class="st1" d="M177.3,15.6c0,0-129.7,53.3-143.6,59.1s-20.9,19.7-20.9,33.6c0,13.9-10.4,195.3,164.5,283c0,0,15.9,4.4,27.9,0
	s164.9-78.5,164.9-283.6c0,0,0-20.9-24.3-32.4S203.9,15.6,203.9,15.6S189.5,9.2,177.3,15.6z"/>
<path class="st2" d="M191.2,57.3v284.3c0,0-130.9-63-129.7-228.6L191.2,57.3z"/>
<polygon class="st3" points="192.9,261.6 151.2,208 175.5,189.1 195.2,214.5 261.9,144.1 284.2,165.2 "/>
<polygon class="st4" points="547.2,568.2 562.7,568.2 570,508.6 547.2,508.6 "/>
<path class="st0" d="M543.3,563.2l30.5,0h0c10.7,0,19.4,8.7,19.4,19.4v0.6l-49.9,0L543.3,563.2z"/>
<polygon class="st4" points="599.2,568.2 614.7,568.2 622,508.6 599.2,508.6 "/>
<path class="st0" d="M595.3,563.2l30.5,0h0c10.7,0,19.4,8.7,19.4,19.4v0.6l-49.9,0L595.3,563.2z"/>
<polygon class="st0" points="571.5,358.8 575.2,548 545.2,546.1 524.4,425.6 517.8,343.4 "/>
<path class="st0" d="M623,327l4.2,224l-35-1l-7.6-133.2l-13.2-48.2l-53.7-25.2l8.8-60.3l78.9-1.1L623,327z"/>
<circle class="st4" cx="562.7" cy="99.6" r="26.8"/>
<polygon class="st1" points="584.9,137.7 589,144 600,174.6 591.2,294.1 539.7,295.2 533.2,158.2 546.9,141 "/>
<path class="st0" d="M512.3,161.5l-8.8-1.1c0,0-2.2,1.1-3.3,8.8S486,244.8,486,244.8l17.5,83.3l19.7-26.3l-12.1-46l12.1-46
	L512.3,161.5z"/>
<polygon class="st0" points="624.1,160.4 630.7,160.4 647.1,249.2 631.8,318.2 616.4,293 620.8,265.6 618.6,241.5 611,227.2 "/>
<path class="st5" d="M578.5,99.6l-4.9-1.2c0,0-3.7-20.7-12.2-18.3S531,85,531,75.2s20.7-18.3,32.9-17.1s27.8,5.3,31.7,23.2
	c6.3,28.7-13,36-13,36l0.3-1C584.7,110.3,583,103.9,578.5,99.6z"/>
<path class="st0" d="M504.7,160.4l35.1-14.2l8.2-6l24.7,109l11.5-112.3l45.5,23.6l-15.3,74.5l-2.2,28.5l6.6,23c0,0,23,16.4,15.3,34
	S617.5,339,617.5,339s-37.3-35.1-39.5-43.8s-5.5-24.1-5.5-24.1s-18.6,70.1-40.5,69S510.1,316,510.1,316l5.5-24.1l8.8-25.2l-4.4-41.6
	L504.7,160.4z"/>
</svg>
